<?xml version="1.0" encoding="utf-8"?>
<!-- Generator: Adobe Illustrator 26.1.0, SVG Export Plug-In . SVG Version: 6.00 Build 0)  -->
<svg version="1.1"
	 id="svg3710" inkscape:version="1.0.1 (3bc2e813f5, 2020-09-07)" xmlns:cc="http://creativecommons.org/ns#" xmlns:dc="http://purl.org/dc/elements/1.1/" xmlns:inkscape="http://www.inkscape.org/namespaces/inkscape" xmlns:rdf="http://www.w3.org/1999/02/22-rdf-syntax-ns#" xmlns:sodipodi="http://sodipodi.sourceforge.net/DTD/sodipodi-0.dtd" xmlns:svg="http://www.w3.org/2000/svg"
	 xmlns="http://www.w3.org/2000/svg" xmlns:xlink="http://www.w3.org/1999/xlink" x="0px" y="0px" viewBox="0 0 256 256"
	 style="enable-background:new 0 0 256 256;" xml:space="preserve">
<style type="text/css">
	.st0{fill:#FDC10C;}
	.st1{fill:none;stroke:#BF8D18;stroke-width:4.3414;stroke-miterlimit:12.3062;}
	.st2{fill:#E5403C;}
	.st3{fill:none;stroke:#A53129;stroke-width:4.3414;stroke-miterlimit:12.3062;}
	.st4{fill:#C23932;}
	.st5{fill:#EA6B6D;}
	.st6{fill:#F5B511;}
	.st7{fill:#F3A2B5;stroke:#A64A7A;stroke-width:4.3414;stroke-miterlimit:12.3062;}
	.st8{fill:#C9221B;stroke:#781706;stroke-width:4.3414;stroke-miterlimit:12.3062;}
	.st9{fill:#F7A422;stroke:#C3841A;stroke-width:4.3414;stroke-miterlimit:12.3062;}
	.st10{fill:#E89B1F;}
	.st11{fill:#FDC10C;stroke:#DBA01C;stroke-width:4.3414;stroke-miterlimit:12.3062;}
	.st12{fill:#668C3F;}
	.st13{fill:none;stroke:#366E1D;stroke-width:4.3414;stroke-miterlimit:12.3062;}
	.st14{fill:#FAB71F;}
</style>
<sodipodi:namedview  bordercolor="#666666" borderopacity="1.0" id="base" inkscape:current-layer="layer1" inkscape:cx="173.75149" inkscape:cy="67.206525" inkscape:document-rotation="0" inkscape:document-units="px" inkscape:pageopacity="0.0" inkscape:pageshadow="2" inkscape:window-height="1040" inkscape:window-maximized="0" inkscape:window-width="1560" inkscape:window-x="389" inkscape:window-y="21" inkscape:zoom="1.4" pagecolor="#ffffff" showgrid="false" units="px">
	</sodipodi:namedview>
<g id="layer1" inkscape:groupmode="layer" inkscape:label="Warstwa 1">
	<g id="g3659" transform="matrix(0.32560265,0,0,0.32560265,9.6134335,-96.235659)">
		<path id="path3464" class="st0" d="M339.3,736.2c0-5-64.3-167-69.7-171.7c-5.3-4.7,4.7-19.3,25.3-39.7
			c20.3-20.3,44.3-27.3,44.3-27.3S383,743.9,381,743.9C379.3,743.9,339.3,736.2,339.3,736.2L339.3,736.2z"/>
		<path id="path3466" class="st1" d="M339.3,736.2c0-5-64.3-167-69.7-171.7c-5.3-4.7,4.7-19.3,25.3-39.7
			c20.3-20.3,44.3-27.3,44.3-27.3S383,743.9,381,743.9C379.3,743.9,339.3,736.2,339.3,736.2L339.3,736.2z"/>
		<path id="path3468" class="st0" d="M399.7,780.9c0,0-56.3-299.7-40.3-313.7s58-20.3,60.7-15.3c3,5,25.7,272.7,25.7,291.7
			C445.7,762.5,399.7,780.9,399.7,780.9z"/>
		<path id="path3470" class="st1" d="M399.7,780.9c0,0-56.3-299.7-40.3-313.7s58-20.3,60.7-15.3c3,5,25.7,272.7,25.7,291.7
			C445.7,762.5,399.7,780.9,399.7,780.9z"/>
		<path id="path3472" class="st0" d="M426.3,780.9c0,0-81-146-68.3-151c12.7-4.7,35.7-25.3,61-20.7c25,4.7,48.3,160.7,48.3,160.7
			L426.3,780.9z"/>
		<path id="path3474" class="st1" d="M426.3,780.9c0,0-81-146-68.3-151c12.7-4.7,35.7-25.3,61-20.7c25,4.7,48.3,160.7,48.3,160.7
			L426.3,780.9z"/>
		<path id="path3476" class="st0" d="M610.3,654.5c-0.3,0,93-217,89-231c-4-14.7-48.3-21-60.3-22.3c-11.7-1.7-64.3,223.7-64.3,223.7
			L610.3,654.5z"/>
		<path id="path3478" class="st1" d="M610.3,654.5c-0.3,0,93-217,89-231c-4-14.7-48.3-21-60.3-22.3c-11.7-1.7-64.3,223.7-64.3,223.7
			L610.3,654.5z"/>
		<path id="path3480" class="st0" d="M466.7,745.5c0,0-48-360-51-366.7c-2.7-7,56.7-35,76-22.3c19.3,12.7,3.7,391,3.7,391
			L466.7,745.5z"/>
		<path id="path3482" class="st1" d="M466.7,745.5c0,0-48-360-51-366.7c-2.7-7,56.7-35,76-22.3c19.3,12.7,3.7,391,3.7,391
			L466.7,745.5z"/>
		<path id="path3484" class="st0" d="M522,627.2c0,0-21.7-273.3,24.3-276c46.3-2.7,59.7,13.7,66.3,23.3
			c6.7,9.7-37.3,218.3-38.7,252.7c-1.3,34.3-6,166.7-16.7,172.7C547,805.9,522,627.2,522,627.2z"/>
		<path id="path3486" class="st1" d="M522,627.2c0,0-21.7-273.3,24.3-276c46.3-2.7,59.7,13.7,66.3,23.3
			c6.7,9.7-37.3,218.3-38.7,252.7c-1.3,34.3-6,166.7-16.7,172.7C547,805.9,522,627.2,522,627.2z"/>
		<path id="path3488" class="st0" d="M673.3,782.2c0,0,41.3-110.7,63.3-172.7c22-61.7,13.3-68.3,10.7-69c-2.7-0.3-78.7-31.7-84.3,3
			c-5.7,34.7-45.7,198.3-39.3,213C629.7,771.5,673.3,782.2,673.3,782.2L673.3,782.2z"/>
		<path id="path3490" class="st1" d="M673.3,782.2c0,0,41.3-110.7,63.3-172.7c22-61.7,13.3-68.3,10.7-69c-2.7-0.3-78.7-31.7-84.3,3
			c-5.7,34.7-45.7,198.3-39.3,213C629.7,771.5,673.3,782.2,673.3,782.2L673.3,782.2z"/>
		<path id="path3492" class="st0" d="M572.7,655.9c0,0-32.3-171-13.3-181.7c18.7-10.7,66.3-29,70.7-12c4.3,17-10,97.3-16.7,154.7
			C606.3,673.9,572.7,655.9,572.7,655.9z"/>
		<path id="path3494" class="st1" d="M572.7,655.9c0,0-32.3-171-13.3-181.7c18.7-10.7,66.3-29,70.7-12c4.3,17-10,97.3-16.7,154.7
			C606.3,673.9,572.7,655.9,572.7,655.9z"/>
		<path id="path3496" class="st0" d="M637.3,751.9c0,0-1-79.7,8.3-131.3c9.7-51.7-20-51.7-39-48.7c-19,3-28.7,53-27.7,136.7
			C580,792.2,637.3,751.9,637.3,751.9z"/>
		<path id="path3498" class="st1" d="M637.3,751.9c0,0-1-79.7,8.3-131.3c9.7-51.7-20-51.7-39-48.7c-19,3-28.7,53-27.7,136.7
			C580,792.2,637.3,751.9,637.3,751.9z"/>
		<path id="path3500" class="st0" d="M474,762.2c0,0-48.3-212.3-43.7-225.7c4.7-13,74.3-27.7,95.3-17.7c21.3,10-23,252.3-23,252.3
			L474,762.2z"/>
		<path id="path3502" class="st1" d="M474,762.2c0,0-48.3-212.3-43.7-225.7c4.7-13,74.3-27.7,95.3-17.7c21.3,10-23,252.3-23,252.3
			L474,762.2z"/>
		<path id="path3504" class="st0" d="M522.7,847.9c-0.7-2-23.7-152-21-170.3c2.7-18.3,43.3-37,72.3-25.7
			c29,11.3,5.7,111.7-7.7,175.7C553.3,891.9,522.7,847.9,522.7,847.9z"/>
		<path id="path3506" class="st1" d="M522.7,847.9c-0.7-2-23.7-152-21-170.3c2.7-18.3,43.3-37,72.3-25.7
			c29,11.3,5.7,111.7-7.7,175.7C553.3,891.9,522.7,847.9,522.7,847.9z"/>
		<path id="path3508" class="st2" d="M518.7,1062.2c177.7,0,111-14.3,154.3-155.7c43.7-141.3,60-233.7,56-236.7
			c-7.3-5.3-43,34-217.3,34c-151.3-0.3-200.3-30.7-216.3-25.7c-12,3.7,42,211.7,60,276c18.3,64,12.3,103.7,86.3,108
			C515.7,1066.2,518.7,1062.2,518.7,1062.2L518.7,1062.2z"/>
		<path id="path3510" class="st3" d="M518.7,1062.2c177.7,0,111-14.3,154.3-155.7c43.7-141.3,60-233.7,56-236.7
			c-7.3-5.3-43,34-217.3,34c-151.3-0.3-200.3-30.7-216.3-25.7c-12,3.7,42,211.7,60,276c18.3,64,12.3,103.7,86.3,108
			C515.7,1066.2,518.7,1062.2,518.7,1062.2L518.7,1062.2z"/>
		<path id="path3512" class="st4" d="M620,780.9c69.3-10-23,78.7-55,125.3c-31.7,47-163.7,91-163.7,91s-9,30.7,28.7,31.7
			c37.7,0.7,184.3,12,196.7-3.7c12.7-15.7,7.7-91,21-119.7c13.3-29,39.7-116.3,38-136.7C684,748.2,617.3,781.2,620,780.9L620,780.9z
			"/>
		<path id="path3514" class="st5" d="M330.7,717.2c1,1.3,107,2.3,94,21.3c-13,19.3-42.7,122.7-67.7,73
			c-24.7-49.3-32.3-78.7-32.3-82.3C324.7,725.9,330.7,717.2,330.7,717.2L330.7,717.2z"/>
		<path id="path3516" class="st6" d="M692.3,559.5c25.3-3,44.3-6,37,21.7c-7,28-22.3,81.3-23,56
			C705.7,611.5,692.3,559.5,692.3,559.5L692.3,559.5z"/>
		<path id="path3518" class="st6" d="M455,554.2c22.3-9,45-26,38-3.7c-7,22,7.7,111.3-7.7,93.3C470.3,625.9,455,554.2,455,554.2
			L455,554.2z"/>
		<path id="path3520" class="st6" d="M375.3,481.2c12.7,97.3,12.7,97.3,12.7,97.3s1.3-77.3,6.7-88.7c5.3-11.3-13.3-15.3-13.3-15.3
			L375.3,481.2z"/>
		<path id="path3522" class="st6" d="M307,557.5c2.7-0.7-35.7-25-5.3,35.3c30.7,60.3,30.7,81.3,32.7,76.3c2-4.7-2-48,0-64
			C336.3,589.2,307,557.5,307,557.5z"/>
		<path id="path3524" class="st6" d="M583,477.9c16.3-6,36.3-6.7,34-3c-2.3,3.3-5.7,64.7-5.7,64.7s-11.7-37.7-21-46.7
			C581.3,484.2,583,477.9,583,477.9L583,477.9z"/>
		<path id="path3526" class="st6" d="M661,427.2c-3.3,17.7,28.7-12.3,18.3,11C669,461.5,656,492.9,661,470.9
			C666.3,448.9,661.7,423.9,661,427.2L661,427.2z"/>
		<path id="path3528" class="st6" d="M554.7,378.9c11-3.3,41.7-11,40.7-1c-1,9.7,1,23.3,0,41.7c-1,18.7-2.3,39-4,19.3
			c-1.7-19.7,4-16.7-9-29s-22.3-19.3-25-25C554.7,378.9,554.7,378.9,554.7,378.9L554.7,378.9z"/>
		<path id="path3530" class="st6" d="M459.3,369.5c5-0.7,20-2.3,21.3,0c1.3,2.3,4.7,125.7,4.7,125.7s3.3-19.3-14-52.3
			C454,409.5,459.3,369.5,459.3,369.5z"/>
		<path id="path3532" class="st7" d="M19.3,982.2c-2.7,0.7-24-1.3-24-18c0-17,24-16.7,24-16.7c561.3,0,561.3,0,561.3,0s13-0.7,13,18
			s-46,16.7-46,16.7H19.3z"/>
		<path id="path3534" class="st8" d="M0,916.5c-6,1.7-15.7,6.7-13.3,14c5,15,12,6,166.7,8.7c154.3,2.3,132.7,4.3,123-17.3
			c-10-21.7-167.7-10.7-207.3-10C29.7,912.2,0,916.5,0,916.5z"/>
		<path id="path3536" class="st8" d="M310,911.2c-29.3,15-57.7,30.3,49.7,30.3s211.7,8,230,1.3c18.7-6.3,21.7-23.7-19.3-27
			C529.3,912.2,310,911.2,310,911.2z"/>
		<path id="path3538" class="st9" d="M590,979.9c-592,0-592,0-592,0s-37.7,82.7,65.7,87s475.3,0,475.3,0S608,1063.5,590,979.9z"/>
		<path id="path3540" class="st10" d="M555,1006.2c-3.3,8.3,26.7,41.3-36.3,47.7c-63,6.3-366.3,0-366.3,0s227.3-4.3,225-11.7
			c-2.7-7.7-91.7-8-56-10.7s118.7-5,139.7-10.3c20.7-5.3-20.3-12-18-12C445.3,1009.2,555,1006.2,555,1006.2L555,1006.2z"/>
		<path id="path3542" class="st11" d="M3.3,869.2c-9,4.7-40.7,35,0,41.7c41,6.3,136.3-4.7,211,0c74.3,4.3,216,90,216,90
			s171-92.7,167-92.7c-3.7,0,21.7-25-23.7-25C528,883.2,3.3,869.2,3.3,869.2z"/>
		<path id="path3544" class="st12" d="M7,871.5c0,0-45.3,6.3-18,25.3c27.3,19,43,11.7,61,7.3c18.3-4,0.3,18,49.3,15
			c49-3.3,22.7-27,58.7-20.7s10.7,30.7,57.7,21c47-10-11.7-16,27.7-18.7c39.7-2.3,22.3,35.7,57.3,19.7c35-15.7,16.3-27,52.3-16.3
			c36,11,27.7,24.3,63.7,5.3c36-19,32.7-22.3,49.3-7.3c16.7,15.3,74.3,21.3,72,5.3c-2.3-16-2-8.3,27.7-1c30,7,51.7,1.3,39.7-22.3
			c-12-23.7-24-18.3-55.3-19.7C518.7,862.9,7,871.5,7,871.5L7,871.5z"/>
		<path id="path3546" class="st13" d="M7,871.5c0,0-45.3,6.3-18,25.3c27.3,19,43,11.7,61,7.3c18.3-4,0.3,18,49.3,15
			c49-3.3,22.7-27,58.7-20.7s10.7,30.7,57.7,21c47-10-11.7-16,27.7-18.7c39.7-2.3,22.3,35.7,57.3,19.7c35-15.7,16.3-27,52.3-16.3
			c36,11,27.7,24.3,63.7,5.3c36-19,32.7-22.3,49.3-7.3c16.7,15.3,74.3,21.3,72,5.3c-2.3-16-2-8.3,27.7-1c30,7,51.7,1.3,39.7-22.3
			c-12-23.7-24-18.3-55.3-19.7C518.7,862.9,7,871.5,7,871.5L7,871.5z"/>
		<path id="path3548" class="st9" d="M-19.3,866.5c617.3,0,617.3,0,617.3,0s25-106.3-126.7-109.3c-151.7-3.3-327-0.7-327-0.7
			s-89.7-4.7-144,41C-31,823.9-19.3,866.5-19.3,866.5z"/>
		<path id="path3550" class="st14" d="M71.3,781.2c4,1.7,40.3,20,20,16c-20.7-4-56.7,2.3-56,8.7c1,6.3,48.3,13,22,18.3
			c-26.7,5.3-63,4.7-49.7,8.7c13.7,3.7,41.3,14.3,24,12c-17.3-2.7-42,4-40.3-3.7c1.3-8,18.3-35,42.7-50.3
			C58.3,775.9,71.3,781.2,71.3,781.2L71.3,781.2z"/>
		<path id="path3552" class="st10" d="M111.7,780.2c16.7,10.3,34,54.7,47.3,59.3c13.7,4.7,65.3-5,32-33.7
			c-33-28.3-61.3-39.7-72.7-34.3C107,776.5,111.7,780.2,111.7,780.2L111.7,780.2z"/>
		<path id="path3554" class="st10" d="M276.7,773.9c0.7,0.7,54,27,50.7,50.3c-3,23.3-24.7,28.7-54.3-1c-30-29.3-60.7-41-33.3-46
			C267,772.5,276.7,773.9,276.7,773.9L276.7,773.9z"/>
		<path id="path3556" class="st10" d="M370.3,790.9c16,15.7,35.7,57,55,49c19.7-8,45.7-27.7,17.7-44.3c-27.7-16.3-45.7-24.7-61-21.3
			C366.7,777.2,370.3,790.9,370.3,790.9z"/>
	</g>
</g>
</svg>
