<?xml version="1.0" encoding="utf-8"?>
<!-- Generator: Adobe Illustrator 26.1.0, SVG Export Plug-In . SVG Version: 6.00 Build 0)  -->
<svg version="1.1"
	 id="svg3710" inkscape:version="1.0.1 (3bc2e813f5, 2020-09-07)" sodipodi:docname="Burgery.svg" xmlns:cc="http://creativecommons.org/ns#" xmlns:dc="http://purl.org/dc/elements/1.1/" xmlns:inkscape="http://www.inkscape.org/namespaces/inkscape" xmlns:rdf="http://www.w3.org/1999/02/22-rdf-syntax-ns#" xmlns:sodipodi="http://sodipodi.sourceforge.net/DTD/sodipodi-0.dtd" xmlns:svg="http://www.w3.org/2000/svg"
	 xmlns="http://www.w3.org/2000/svg" xmlns:xlink="http://www.w3.org/1999/xlink" x="0px" y="0px" viewBox="0 0 256 256"
	 style="enable-background:new 0 0 256 256;" xml:space="preserve">
<style type="text/css">
	.st0{fill:#6D3105;stroke:#540E00;stroke-width:4.4099;stroke-miterlimit:12.5004;}
	.st1{fill:#C9221B;stroke:#781706;stroke-width:4.4099;stroke-miterlimit:12.5004;}
	.st2{fill:#5E2301;}
	.st3{fill:#F7A422;stroke:#C3841A;stroke-width:4.4099;stroke-miterlimit:12.5004;}
	.st4{fill:#FDC10C;}
	.st5{fill:none;stroke:#DBA01C;stroke-width:4.4099;stroke-miterlimit:12.5004;}
	.st6{fill:#668C3F;}
	.st7{fill:none;stroke:#366E1D;stroke-width:4.4099;stroke-miterlimit:12.5004;}
	.st8{fill:#FCCD98;}
	.st9{fill:#E89B1F;}
	.st10{fill:#FAB71F;}
</style>
<sodipodi:namedview  bordercolor="#666666" borderopacity="1.0" id="base" inkscape:current-layer="layer1" inkscape:cx="135.84942" inkscape:cy="156.98442" inkscape:document-rotation="0" inkscape:document-units="px" inkscape:pageopacity="0.0" inkscape:pageshadow="2" inkscape:window-height="1040" inkscape:window-maximized="0" inkscape:window-width="1560" inkscape:window-x="389" inkscape:window-y="21" inkscape:zoom="1.4" pagecolor="#ffffff" showgrid="false" units="px">
	</sodipodi:namedview>
<g id="layer1" inkscape:groupmode="layer" inkscape:label="Warstwa 1">
	<g id="g3434" transform="matrix(0.3307399,0,0,0.3307399,92.654557,86.706698)">
		<path id="path2530" class="st0" d="M-206.4,330.1c-3.3,2.3-28.3-4-28.3-64.7c0-61,28.3-60.3,28.3-60.3c654,0,654,0,654,0
			s15-2,15,65s-53.3,60.3-53.3,60.3L-206.4,330.1z"/>
		<path id="path2532" class="st1" d="M-229.1,159.1c-7,3.7-18.3,14-15.7,29.3c5.7,31.7,14,13,193,18c178.7,5,153.7,9.3,142.3-36
			c-11.3-45-194.3-22.7-240-21.3C-195.1,150.4-229.1,159.1-229.1,159.1z"/>
		<path id="path2534" class="st1" d="M131.9,148.4c-34,30.7-67,63,58,63s246.7,17,268.3,3.3c21.7-14,25.3-50-22.7-57
			C387.6,150.4,131.9,148.4,131.9,148.4L131.9,148.4z"/>
		<path id="path2536" class="st2" d="M10.9,290.4c-1.7-3-47.7-51-66-53.3c-18.3-2.7,41.3,29.7,56,55.7
			C15.6,318.7,10.9,290.4,10.9,290.4z"/>
		<path id="path2538" class="st2" d="M92.6,290.4c-1.7-3-47.7-51-66-53.3c-18.3-2.7,41,29.7,55.7,55.7
			C96.9,318.7,92.6,290.4,92.6,290.4z"/>
		<path id="path2540" class="st2" d="M172.9,287.1c-2-3-48-51-66.3-53.3c-18.3-2.7,41.3,29.7,56,55.7S172.9,287.1,172.9,287.1z"/>
		<path id="path2542" class="st3" d="M458.6,327.7c-690.3,0-690.3,0-690.3,0s-43.7,117,76.7,123.3c120.7,6,554,0,554,0
			S479.3,446.4,458.6,327.7L458.6,327.7z"/>
		<path id="path2544" class="st4" d="M-236.1,113.1c0,0-14.7,11.7-14.7,28.3c0,16.3,11.3,30,128,25c116.3-5,90-5.7,103.7,57.3
			c14,63.3,40.7,6.3,39.3-31.7c-1-38,0.7-29.3,47.3-27.3c46.7,2.3-26.7,122.3,10,178c36.7,56,65,0,55.3-89.7
			c-10-89.7-29-87.7,52.3-86c0,0,235,0,264.3,0c29.7,0,63-55-69.3-95.7c-44-13.7-407.7-5-419,0c-11.3,5.3-154.7,41-171.7,39.7
			C-227.4,109.4-236.1,113.1-236.1,113.1L-236.1,113.1z"/>
		<path id="path2546" class="st5" d="M-236.1,113.1c0,0-14.7,11.7-14.7,28.3c0,16.3,11.3,30,128,25c116.3-5,90-5.7,103.7,57.3
			c14,63.3,40.7,6.3,39.3-31.7c-1-38,0.7-29.3,47.3-27.3c46.7,2.3-26.7,122.3,10,178c36.7,56,65,0,55.3-89.7
			c-10-89.7-29-87.7,52.3-86c0,0,235,0,264.3,0c29.7,0,63-55-69.3-95.7c-44-13.7-407.7-5-419,0c-11.3,5.3-154.7,41-171.7,39.7
			C-227.4,109.4-236.1,113.1-236.1,113.1L-236.1,113.1z"/>
		<path id="path2548" class="st6" d="M-234.1,45.4c0,0-52.7,10.7-21,42.7c32,32,50,19.7,71.3,12.3c21-7,0.3,30.3,57.7,25
			c57-5.3,26.3-45.3,68.3-34.7c41.7,10.7,12.3,51.7,67,35.3c54.7-16.7-13.7-27,32.3-31c46-4.3,25.7,59.7,66.7,33s19-46,61-27.7
			c42,18.7,32.3,41,74.3,9c42-32,38-37.7,57.3-12.3c19.7,25.7,87,36,84,9c-2.7-27-2.3-14.3,32.3-2c35,12.3,60,2.3,46-37.3
			c-14-40-28-31.3-64.3-33.3C362.6,31.1-234.1,45.4-234.1,45.4L-234.1,45.4z"/>
		<path id="path2550" class="st7" d="M-234.1,45.4c0,0-52.7,10.7-21,42.7c32,32,50,19.7,71.3,12.3c21-7,0.3,30.3,57.7,25
			c57-5.3,26.3-45.3,68.3-34.7c41.7,10.7,12.3,51.7,67,35.3c54.7-16.7-13.7-27,32.3-31c46-4.3,25.7,59.7,66.7,33s19-46,61-27.7
			c42,18.7,32.3,41,74.3,9c42-32,38-37.7,57.3-12.3c19.7,25.7,87,36,84,9c-2.7-27-2.3-14.3,32.3-2c35,12.3,60,2.3,46-37.3
			c-14-40-28-31.3-64.3-33.3C362.6,31.1-234.1,45.4-234.1,45.4L-234.1,45.4z"/>
		<path id="path2552" class="st3" d="M465.3,46.7c-719.7,0-719.7,0-719.7,0s-37.3-246,380-246C514.9-199.3,465.3,46.7,465.3,46.7
			L465.3,46.7z"/>
		<path id="path2554" class="st8" d="M-6.7-98.6c8.7,11,18.3,16,22,11.3c4-4.7,0-17.3-8.7-28.3c-8.7-10.7-18.3-15.7-22.3-11
			C-19.4-121.9-15.4-109.3-6.7-98.6L-6.7-98.6z"/>
		<path id="path2556" class="st8" d="M60.3-144.9c-8.7,10.7-18.7,15.7-22.3,11c-3.7-4.7,0.3-17,8.7-28c8.7-10.7,18.7-15.7,22.3-11
			C72.6-168.3,68.6-155.6,60.3-144.9z"/>
		<path id="path2558" class="st8" d="M105.9-98.6c8.7,11,18.7,16,22.3,11.3c3.7-4.7-0.3-17.3-9-28.3c-8.3-10.7-18.3-15.7-22-11
			C93.6-121.9,97.3-109.3,105.9-98.6L105.9-98.6z"/>
		<path id="path2560" class="st8" d="M177.9-147.3c-8.3,11-18.3,16-22,11.3c-3.7-4.7,0-17.3,8.7-28c8.7-11,18.7-16,22.3-11.3
			C190.6-170.6,186.6-157.9,177.9-147.3L177.9-147.3z"/>
		<path id="path2562" class="st8" d="M214.6-98.6c8.7,11,18.7,16,22.3,11.3c3.7-4.7-0.3-17.3-8.7-28.3c-8.7-10.7-18.7-15.7-22.3-11
			C202.3-121.9,206.3-109.3,214.6-98.6z"/>
		<path id="path2564" class="st8" d="M303.9-119.9c-8.7,11-18.7,16-22.3,11.3c-3.7-4.7,0.3-17.3,9-28.3c8.3-10.7,18.3-15.7,22-11
			C316.3-143.3,312.3-130.6,303.9-119.9L303.9-119.9z"/>
		<path id="path2566" class="st8" d="M-50.4-119.9c-8.3,11-18.3,16-22,11.3c-3.7-4.7,0.3-17.3,8.7-28.3c8.7-10.7,18.7-15.7,22.3-11
			C-37.7-143.3-41.7-130.6-50.4-119.9L-50.4-119.9z"/>
		<path id="path2568" class="st2" d="M236.6,288.1c-1.7-3-47.7-51-66-53.7c-18.3-2.3,41.3,29.7,56,56
			C241.3,316.4,236.6,288.1,236.6,288.1z"/>
		<path id="path2570" class="st2" d="M312.9,288.1c-1.7-3-47.7-51-66-53.7c-18.3-2.3,41,29.7,55.7,56
			C317.6,316.4,312.9,288.1,312.9,288.1z"/>
		<path id="path2572" class="st2" d="M394.6,284.7c-2-3.3-47.7-51-66-53.7c-18.7-2.3,41,29.7,55.7,55.7
			C398.9,313.1,394.6,284.7,394.6,284.7z"/>
		<path id="path2574" class="st2" d="M-141.4,286.4c-1.7-3.3-47.7-51-66-53.7c-18.3-2.3,41,29.7,55.7,56
			C-137.1,314.7-141.4,286.4-141.4,286.4L-141.4,286.4z"/>
		<path id="path2576" class="st2" d="M-66.4,286.4c-2-3.3-47.7-51-66-53.7c-18.3-2.3,41,29.7,55.7,56
			C-62.1,314.7-66.4,286.4-66.4,286.4z"/>
		<path id="path2578" class="st9" d="M324.9-70.6c0,0,2.7,18.7-180,53.7c-183,34.7-271.7,38.3-271.7,38.3s412,5,502-11.3
			c90.3-16,44-84.7,24.3-92C379.9-89.6,324.9-70.6,324.9-70.6L324.9-70.6z"/>
		<path id="path2580" class="st9" d="M417.6,365.4c-3.7,11.3,31,58.3-42.3,67.3s-427,0-427,0s265.3-6,262.3-16.7
			c-3-10.7-106.7-11.3-65-15s138.3-7,162.3-14.3c24.3-7.7-23.3-17.3-20.7-17.3S417.6,365.4,417.6,365.4L417.6,365.4z"/>
		<path id="path2582" class="st10" d="M-126.7-114.6c7.7,1,75,16,39.3,18c-35.3,1.7-92.3,26.7-88.3,36.7c3.7,9.7,84.7,1.3,43,21
			c-41.3,19.7-102,33.3-78,34c23.7,0.7,73.7,6.7,44,10c-29.3,3-67.3,23.7-68,10c-0.7-13.3,16.7-64.3,50.7-99
			C-150.1-118.3-126.7-114.6-126.7-114.6L-126.7-114.6z"/>
		<path id="path2584" class="st10" d="M-115.4-106.9c-3,0,0-18,14.7-24.3c14.3-6-27.3,0.7-40,12.3c-12.7,11.3-41,32.3-29,30
			C-157.7-90.9-115.4-106.9-115.4-106.9L-115.4-106.9z"/>
	</g>
</g>
</svg>
