<?xml version="1.0" encoding="utf-8"?>
<!-- Generator: Adobe Illustrator 26.1.0, SVG Export Plug-In . SVG Version: 6.00 Build 0)  -->
<svg version="1.1"
	 id="svg3710" xmlns:cc="http://creativecommons.org/ns#" xmlns:dc="http://purl.org/dc/elements/1.1/" xmlns:inkscape="http://www.inkscape.org/namespaces/inkscape" xmlns:rdf="http://www.w3.org/1999/02/22-rdf-syntax-ns#" xmlns:sodipodi="http://sodipodi.sourceforge.net/DTD/sodipodi-0.dtd" xmlns:svg="http://www.w3.org/2000/svg"
	 xmlns="http://www.w3.org/2000/svg" xmlns:xlink="http://www.w3.org/1999/xlink" x="0px" y="0px" viewBox="0 0 256 256"
	 style="enable-background:new 0 0 256 256;" xml:space="preserve">
<style type="text/css">
	.st0{fill:#4C792D;stroke:#30641A;stroke-width:4.4297;stroke-miterlimit:12.5566;}
	.st1{fill:#336120;}
	.st2{fill:#668C3F;stroke:#366E1D;stroke-width:4.4297;stroke-miterlimit:12.5566;}
	.st3{fill:#4C792D;}
	.st4{fill:#4F2200;stroke:#430800;stroke-width:4.4297;stroke-miterlimit:12.5566;}
	.st5{fill:#FEE7C9;}
	.st6{fill:none;stroke:#CCBBA2;stroke-width:2.6578;stroke-miterlimit:12.5566;}
	.st7{fill:#821510;}
	.st8{fill:none;stroke:#7B1308;stroke-width:2.6578;stroke-miterlimit:12.5566;}
	.st9{fill:#D3461C;}
	.st10{fill:none;stroke:#B21917;stroke-width:3.1008;stroke-miterlimit:12.5566;}
	.st11{fill:#A9191A;}
	.st12{fill:none;stroke:#941710;stroke-width:2.6578;stroke-miterlimit:12.5566;}
	.st13{fill:#6D3105;stroke:#540E00;stroke-width:4.4297;stroke-miterlimit:12.5566;}
	.st14{fill:#FCCD98;stroke:#B88460;stroke-width:4.4297;stroke-miterlimit:12.5566;}
	.st15{fill:#DAA681;}
</style>
<sodipodi:namedview  bordercolor="#666666" borderopacity="1.0" id="base" inkscape:current-layer="layer1" inkscape:cx="173.75149" inkscape:cy="67.206525" inkscape:document-rotation="0" inkscape:document-units="px" inkscape:pageopacity="0.0" inkscape:pageshadow="2" inkscape:window-height="1040" inkscape:window-maximized="0" inkscape:window-width="1560" inkscape:window-x="389" inkscape:window-y="21" inkscape:zoom="1.4" pagecolor="#ffffff" showgrid="false" units="px">
	</sodipodi:namedview>
<g id="layer1" inkscape:groupmode="layer" inkscape:label="Warstwa 1">
	<g id="g3404" transform="matrix(0.33222711,0,0,0.33222711,90.775771,9.4629579)">
		<path id="path2218" class="st0" d="M88.4,302.9c-9.3-8.3-57.3-46.3-19-74.3c38.3-28.3,15.7-49.3,0.7-69.3c-14.7-20-6.3-60,28-40.3
			c34,19.7-3-32-17.7-56.7s28-44.3,67.7-22c39.7,22.3,7.7-36.3,22-52.3c14.3-16,98.7-5.3,82,30c-16.3,35.3-0.3,70.7,24.3,41.7
			c25.3-29.3,58,4.7,44,40c-14.3,35.3-25.7,17.7-40.3,37.3c-14.7,19.7,5.3,24.7,27.7,45c22,20.7,17.3,33.7-4.7,41.3
			c-21.7,8-30.7,4.7-40,15.3c-9.7,10.7-28,32-6.7,53.7c21,22,58,21.7,34,52.7s-28.3,44-53,41c-24.7-3-15-7.7-59.3-31
			C134.1,331.5,88.4,302.9,88.4,302.9z"/>
		<path id="path2220" class="st1" d="M194.4,270.2c3.7-9.7,29.7-181,6.3-212c-23.3-31,3.3,123.7-26.7,203
			C144.1,340.2,194.4,270.2,194.4,270.2z"/>
		<path id="path2222" class="st2" d="M297.4,405.2c12.7,0,74,2.7,64.3-34.7c-10-37,21.3-37.7,45.7-41.7c24.7-4,45.3-32.3,6.3-39
			c-39-6.3-12.3-34.3,15-41.3c27.7-7,76.7-55.7,32-63.3s-56-29.7-56-46.7c0-17.3-27.3-21.3-38.7,8.7c-11.3,29.7-8.3,56-37,36
			c-29-20-38.7-55-51.7-26.3c-13.3,28.7-10,27-12.3,46.3c-2,19.7-20.7,12-51,12.3c-30,0.3-35.3,10.7-24,27
			c11,16.3,19.7,19.3,19.7,30.7c0,11.3-0.3,34-31,35.7c-30.3,1.7-58-18.3-60.7,13.3c-3,31.3-8.3,41,12,52.7
			c20.7,11.3,16.7,3.3,65.3,13C244.1,397.9,297.4,405.2,297.4,405.2L297.4,405.2z"/>
		<path id="path2224" class="st3" d="M243.1,334.9c3.7-7.7,99.3-124,137.3-130c38.3-6-85.7,72-116,135.3
			C233.7,403.5,243.1,334.9,243.1,334.9z"/>
		<path id="path2226" class="st4" d="M296.1,247.2c2.7-19.7-4-58.7-24.7-51.3c-20.7,7-18.7,12.7-29.7,3c-11-10-12.7-16.3-28-33.7
			c-15.7-17.3-36.3-22.7-40-19.3c-3.3,3.3-21-4.3-25.3-7c-4.3-3,5.7-22.3-14-18c-20,4.7-30.3,2.3-26.3,11.7c3.7,9.7,24-1.3,8.7,19.7
			c-15,21-36.3,5.7-24.3,35c12.3,29.3,4,19.3,16.7,38.7c13,19.7-21.7,16.3,20,31c41.3,14.3,56,23.3,75,18c19-5.3-16.3-20.7,32.3-2.7
			s39.3,39.7,56.7,16.7C310.4,266.2,296.1,247.2,296.1,247.2L296.1,247.2z"/>
		<path id="path2228" class="st5" d="M-15.9,263.2c0,0,116.7,111.3,210,40.7c100-75.7,34-184.3-17.3-214c-56.3-32.3-129,9.7-129,9.7
			s11.3,35.3,12,36.7c0.3,1.3,65.7-43.3,102.7-7c62.7,60.7,39.7,119.7,1.7,150.7c-38.3,31-141.3,0-152.3-38.7
			C0.7,202.2-15.9,263.2-15.9,263.2z"/>
		<path id="path2230" class="st6" d="M-15.9,263.2c0,0,116.7,111.3,210,40.7c100-75.7,34-184.3-17.3-214c-56.3-32.3-129,9.7-129,9.7
			s11.3,35.3,12,36.7c0.3,1.3,65.7-43.3,102.7-7c62.7,60.7,39.7,119.7,1.7,150.7c-38.3,31-141.3,0-152.3-38.7
			C0.7,202.2-15.9,263.2-15.9,263.2z"/>
		<path id="path2232" class="st2" d="M157.1,236.9c-1.3,1.3-18.7-17.7-12.7-27.3c6.3-9.3,17.7-8.3,0.7-13.7
			c-17.3-5.7-16.7,3.7-11.7-15.7c5-19-11-13.3-16-24c-5-10.7,4-22.3,4-28c0-5.7-10.7-2.7-19.3-5.3c-8.7-2.3-21.3-34-23.3-37.7
			c-2.3-3.7-7.7,10.7-26.3,5S32.1,61.5,21.7,65.5c-10.3,3.7-18,7-15.7,18.7c2,12,4,16-12.7,12.3c-16.7-3.7-30-12-32.7,1.3
			c-2.7,13.3-5.7,12.3,4.7,26.3c10.3,13.7,26,12,16.7,25.3c-9.7,13.7-25.7,17-18.7,31.3c6.7,14.7,31,21,28.3,35.7
			c-2.3,15,13.3,74,17.3,84.7c4,10.7,5,31.7,39.7,33.3c34.7,2,36.3,14,60-6c23.7-20,33-27,38-45.7
			C151.7,263.9,157.1,236.9,157.1,236.9z"/>
		<path id="path2234" class="st3" d="M84.7,252.9c0.3-7-26.7-133-53.3-152.3c-26.3-19.7,36.7,88.3,35,148.3
			C64.7,308.9,84.7,252.9,84.7,252.9z"/>
		<path id="path2236" class="st5" d="M37.1,326.2c0,0,118,14.7,142-68.3c26-88.7-61-123.7-104.3-118.7c-47.7,5.7-72,62.3-72,62.3
			s22.3,15.7,23,16.3c1,0.7,20-54.3,58-49.3c63.7,8.7,76,53.3,67,88.7c-9,35-83.7,62-107,44C20.1,282.9,37.1,326.2,37.1,326.2z"/>
		<path id="path2238" class="st6" d="M37.1,326.2c0,0,118,14.7,142-68.3c26-88.7-61-123.7-104.3-118.7c-47.7,5.7-72,62.3-72,62.3
			s22.3,15.7,23,16.3c1,0.7,20-54.3,58-49.3c63.7,8.7,76,53.3,67,88.7c-9,35-83.7,62-107,44C20.1,282.9,37.1,326.2,37.1,326.2z"/>
		<path id="path2240" class="st7" d="M359.1,359.5c0,52.3-42.3,94.7-94.7,94.7c-52,0-94.3-42.3-94.3-94.7c0-52,42.3-94.3,94.3-94.3
			C316.7,265.2,359.1,307.5,359.1,359.5z"/>
		<path id="path2242" class="st8" d="M359.1,359.5c0,52.3-42.3,94.7-94.7,94.7c-52,0-94.3-42.3-94.3-94.7c0-52,42.3-94.3,94.3-94.3
			C316.7,265.2,359.1,307.5,359.1,359.5z"/>
		<path id="path2244" class="st9" d="M340.7,357.5c0,42-34.3,76-76.3,76s-76-34-76-76s34-76,76-76S340.7,315.5,340.7,357.5z"/>
		<path id="path2246" class="st10" d="M340.7,357.5c0,42-34.3,76-76.3,76s-76-34-76-76s34-76,76-76S340.7,315.5,340.7,357.5z"/>
		<path id="path2248" class="st11" d="M245.7,300.9c-25.3,10.3-23.7,23.7-8.3,29c15,5.7,15.7,2.7,15.7,2.7s-13.3-11-0.7-17
			c13-5.7,9.7,14,9.7,14s21.7-14.3,15.3-24.7C270.7,294.2,245.7,300.9,245.7,300.9L245.7,300.9z"/>
		<path id="path2250" class="st12" d="M245.7,300.9c-25.3,10.3-23.7,23.7-8.3,29c15,5.7,15.7,2.7,15.7,2.7s-13.3-11-0.7-17
			c13-5.7,9.7,14,9.7,14s21.7-14.3,15.3-24.7C270.7,294.2,245.7,300.9,245.7,300.9L245.7,300.9z"/>
		<path id="path2252" class="st11" d="M283.4,414.5c26.3-11,24.7-25,8.7-30.7c-16-5.7-16.7-2.7-16.7-2.7s14,11.3,0.7,17.7
			c-13.3,6.3-10-14.3-10-14.3s-22.7,14.7-16,25.7C256.7,421.2,283.4,414.5,283.4,414.5z"/>
		<path id="path2254" class="st12" d="M283.4,414.5c26.3-11,24.7-25,8.7-30.7c-16-5.7-16.7-2.7-16.7-2.7s14,11.3,0.7,17.7
			c-13.3,6.3-10-14.3-10-14.3s-22.7,14.7-16,25.7C256.7,421.2,283.4,414.5,283.4,414.5z"/>
		<path id="path2256" class="st11" d="M205.7,375.2c12.3,30.3,28.3,28.3,35,10c6.7-18.3,3-19,3-19s-13,16-20,0.7
			c-7.3-15.7,16.3-11.3,16.3-11.3s-17-26-29.7-18.3C198.1,344.9,205.7,375.2,205.7,375.2L205.7,375.2z"/>
		<path id="path2258" class="st12" d="M205.7,375.2c12.3,30.3,28.3,28.3,35,10c6.7-18.3,3-19,3-19s-13,16-20,0.7
			c-7.3-15.7,16.3-11.3,16.3-11.3s-17-26-29.7-18.3C198.1,344.9,205.7,375.2,205.7,375.2L205.7,375.2z"/>
		<path id="path2260" class="st11" d="M318.4,339.9c-11.3-27.3-26-25.7-32-9c-6,16.7-2.7,17.3-2.7,17.3s12-14.7,18.3-0.7
			c6.3,14-15,10.3-15,10.3s15.3,23.3,26.7,16.3C325.1,367.5,318.4,339.9,318.4,339.9z"/>
		<path id="path2262" class="st12" d="M318.4,339.9c-11.3-27.3-26-25.7-32-9c-6,16.7-2.7,17.3-2.7,17.3s12-14.7,18.3-0.7
			c6.3,14-15,10.3-15,10.3s15.3,23.3,26.7,16.3C325.1,367.5,318.4,339.9,318.4,339.9z"/>
		<path id="path2264" class="st13" d="M36.4,223.2c11.7-16,43.3-40,53.3-20.7c10.3,19.3,5,22,19.7,22.3c14.7,0.3,20.3-3,43.3-5
			c23.3-2.3,42,8.3,42.3,13c0.3,5,18.3,11.3,23.3,12.3c5.3,1,11.3-20,22.7-3.3c11.3,17,20.7,22.3,11.3,26.7c-9.3,4-16.7-17.7-20,8
			c-3.3,25.7,22.7,29.3-6.3,42.3c-28.7,13-16,11.3-38.7,16.7c-22.7,5.7,4.7,27-35.3,9c-40.3-17.7-57-21-67.3-38
			c-10-17,26-4-21.7-24.3c-47.7-20-55.7,2-52.7-26.3C13.4,227.2,36.4,223.2,36.4,223.2z"/>
		<path id="path2266" class="st14" d="M70.7,725.5c0,0-43,31-127-11.7c-84-43-127.3-80-110.3-125.7c17-46,67.3-225.3,108.3-312.3
			c41-87.3,52.3-103.3,163.3,1.7c111.3,104.7,166.7,138.3,166.7,138.3s-134,87-146,94.3C113.7,517.5,70.7,725.5,70.7,725.5
			L70.7,725.5z"/>
		<path id="path2268" class="st14" d="M375.1,369.2c-2.3-5-415.3,49.3-454.3,130S22.1,753.5,64.1,732.9
			C106.4,712.5,375.1,369.2,375.1,369.2z"/>
		<path id="path2270" class="st15" d="M81.7,482.9c0,15.7-12.3,28-28,28c-15.3,0-28-12.3-28-28c0-15.3,12.7-28,28-28
			C69.4,454.9,81.7,467.5,81.7,482.9z"/>
		<path id="path2272" class="st15" d="M62.7,554.5c0,6.7-5.3,12-12,12s-12-5.3-12-12c0-6.3,5.3-11.7,12-11.7S62.7,548.2,62.7,554.5z
			"/>
		<path id="path2274" class="st15" d="M10.4,535.9c0,18.3-15,33.3-33.3,33.3s-33-15-33-33.3s14.7-33,33-33S10.4,517.5,10.4,535.9z"
			/>
		<path id="path2276" class="st15" d="M9.1,243.2c0,6.7-5.3,12.3-12.3,12.3c-6.7,0-12.3-5.7-12.3-12.3c0-7,5.7-12.3,12.3-12.3
			C3.7,230.9,9.1,236.2,9.1,243.2z"/>
		<path id="path2278" class="st15" d="M21.4,268.9c0,3.7-2.7,6.3-6,6.3c-3.3,0-6.3-2.7-6.3-6.3c0-3.3,3-6,6.3-6
			C18.7,262.9,21.4,265.5,21.4,268.9z"/>
	</g>
</g>
</svg>
