<?xml version="1.0" encoding="utf-8"?>
<!-- Generator: Adobe Illustrator 26.1.0, SVG Export Plug-In . SVG Version: 6.00 Build 0)  -->
<svg version="1.1"
	 id="svg3710" inkscape:version="1.0.1 (3bc2e813f5, 2020-09-07)" xmlns:cc="http://creativecommons.org/ns#" xmlns:dc="http://purl.org/dc/elements/1.1/" xmlns:inkscape="http://www.inkscape.org/namespaces/inkscape" xmlns:rdf="http://www.w3.org/1999/02/22-rdf-syntax-ns#" xmlns:sodipodi="http://sodipodi.sourceforge.net/DTD/sodipodi-0.dtd" xmlns:svg="http://www.w3.org/2000/svg"
	 xmlns="http://www.w3.org/2000/svg" xmlns:xlink="http://www.w3.org/1999/xlink" x="0px" y="0px" viewBox="0 0 256 256"
	 style="enable-background:new 0 0 256 256;" xml:space="preserve">
<style type="text/css">
	.st0{fill:none;stroke:#000000;stroke-width:4.7491;stroke-miterlimit:13.4621;}
	.st1{fill:#BFD120;}
	.st2{fill:none;stroke:#A4B82F;stroke-width:4.7491;stroke-miterlimit:13.4621;}
	.st3{fill:#8ABE26;}
	.st4{fill:none;stroke:#4F6F13;stroke-width:4.7491;stroke-miterlimit:13.4621;}
	.st5{fill:#D6D900;}
	.st6{fill:#FDD42C;}
	.st7{fill:#FDD42C;stroke:#BE9F00;stroke-width:4.7491;stroke-miterlimit:13.4621;}
	.st8{fill:#EAEAEA;}
	.st9{fill:#EAEAEA;stroke:#686867;stroke-width:4.7491;stroke-miterlimit:13.4621;}
	.st10{fill:#D1D1D1;}
	.st11{fill:#EFC92A;}
	.st12{fill:#FBDBA0;}
	.st13{fill:#FFFFFF;}
</style>
<sodipodi:namedview  bordercolor="#666666" borderopacity="1.0" id="base" inkscape:current-layer="layer1" inkscape:cx="98.866752" inkscape:cy="125.67406" inkscape:document-rotation="0" inkscape:document-units="px" inkscape:pageopacity="0.0" inkscape:pageshadow="2" inkscape:window-height="1040" inkscape:window-maximized="0" inkscape:window-width="1560" inkscape:window-x="389" inkscape:window-y="21" inkscape:zoom="1.4" pagecolor="#ffffff" showgrid="false" units="px">
	</sodipodi:namedview>
<g id="layer1" inkscape:groupmode="layer" inkscape:label="Warstwa 1">
	<g id="g3335" transform="matrix(0.35618416,0,0,0.35618416,16.41172,-73.417772)">
		<path id="path2486" class="st0" d="M599,255.8l-129-29.3"/>
		<path id="path2488" class="st1" d="M57.7,436.4c-28.7-61.3-2-134,59-162.7c61.3-28.7,134.3-2.3,163,58.7L57.7,436.4z"/>
		<path id="path2490" class="st2" d="M57.7,436.4c-28.7-61.3-2-134,59-162.7c61.3-28.7,134.3-2.3,163,58.7L57.7,436.4z"/>
		<path id="path2492" class="st3" d="M289.7,327.8c-31.3-66.7-110.3-95.3-176.7-64c-66.3,31-95,110-64,176.3
			c-30.3,14-30.3,14-30.3,14c-36-77.3-0.3-189.7,81.3-226.3c78-35,183.3,8.7,219.3,86L289.7,327.8z"/>
		<path id="path2494" class="st4" d="M289.7,327.8c-31.3-66.7-110.3-95.3-176.7-64c-66.3,31-95,110-64,176.3
			c-30.3,14-30.3,14-30.3,14c-36-77.3-0.3-189.7,81.3-226.3c78-35,183.3,8.7,219.3,86L289.7,327.8z"/>
		<path id="path2496" class="st5" d="M168.4,347.1c0,0,20.3-49.3,11.3-61.7c-9-12.7-37.3-7.7-44.3,4c-7,11.7,18.3,36.7,24.7,51.3
			C166.4,355.4,168.4,347.1,168.4,347.1z"/>
		<path id="path2498" class="st5" d="M192.7,351.4c0,0,50.3-18,53.7-33c3.3-15-19.7-32.7-33-30.3c-13.3,2.7-15,38.3-21.7,52.7
			C185,355.4,192.7,351.4,192.7,351.4L192.7,351.4z"/>
		<path id="path2500" class="st5" d="M145.4,357.4c0,0-53-6-59.7-20c-6.7-13.7,11.3-36,25-36.7c13.7-0.7,23.3,33.3,33.3,46
			C153.7,359.4,145.4,357.4,145.4,357.4L145.4,357.4z"/>
		<path id="path2502" class="st6" d="M134,360.4l78,488.7v67.7h261v-67.7l73.7-480.7L134,360.4z"/>
		<path id="path2504" class="st7" d="M134,360.4l78,488.7v67.7h261v-67.7l73.7-480.7L134,360.4z"/>
		<path id="path2506" class="st8" d="M158.4,516.8h371l23.3-148.3l-419.7-8L158.4,516.8z"/>
		<path id="path2508" class="st9" d="M158.4,516.8h371l23.3-148.3l-419.7-8L158.4,516.8z"/>
		<path id="path2510" class="st10" d="M515,398.8c0,4,20,83.3-10.7,94c-30.3,10.3-203.3,3-201,4c2.3,1.3,136.3,4.3,177-27.7
			C521,437.4,515,398.8,515,398.8L515,398.8z"/>
		<path id="path2512" class="st8" d="M212.4,846.8l0.3,2.3v67.7H478v-67.7l0.3-2.3H212.4z"/>
		<path id="path2514" class="st9" d="M212.4,846.8l0.3,2.3v67.7H478v-67.7l0.3-2.3H212.4z"/>
		<path id="path2516" class="st11" d="M471.7,564.1c-19.3-3.7-53,14-31.7,17.7c21,3.3,26.7,3.3,26.7,3.3s-68.7,10-42.3,12
			c26,2,47.3,10.7,47.3,10.7S456,632.4,403,631.1c-53-1.7-68.3-5-67-3.7c1.7,1.7,98.7,19.3,106,26.3c7,7-35,24.7-61.7,23
			c-26.7-1.3-44.7,3-35,5c10,2,100-3,96.7,12.7c-3.7,15.7-104,28.7-121.7,26.7c-17.7-2,49.3,6.7,89.7,13.7
			c40.3,7-5.7,32.3-64.7,32.3c-58.7,0-158,12-99.3,12c58.3,0,105.7,5.7,76,7c-29.7,1.7-95.3,2-91.7,3.7c3.3,1.3,109.7,9,143,10.7
			c33.3,1.3-132,14-134,14c-2,0,191.3,0,204,0c12.7,0,47.3-209.7,53-241.3c5.7-31.7-27.7-17.7-27.7-17.7s14.7,6.7,9.7,10
			C473.7,569.1,471.7,564.1,471.7,564.1L471.7,564.1z"/>
		<path id="path2518" class="st0" d="M368.4,781.1l97.3-551.3"/>
		<path id="path2520" d="M471.4,220.1c0,0-9.3-0.7-11.3,4c-2,4.3-2,11.7-2,11.7c17.3-4.3,17.3-4.3,17.3-4.3L471.4,220.1z"/>
		<path id="path2522" class="st12" d="M220.7,555.1c39,0,141.3,0,141.3,0s-96.3,9.7-75.7,12.7s72,0,65,5c-7,5-56,12-72,12
			c-16.3,0-65.7,7.7-9.3,12.7c56.7,5,107.3,6.7,60,12c-47.3,5.7-110.7-6.3-91.7,12.7c19.3,19.3,47.3,29.7,51,29.7c3.3,0-42,0-42,0
			s-57.7,10.7-14,14.3c44,3.3,101.7,9,61.7,9c-40.3,0-71.7-0.7-65,12c6.3,12.7-5.7,26.7-9.3,26.7c-3.3,0-28-170.7-28-170.7
			s36.7-11.7,47.3-10.3c10.3,1,18-1.7,10.3,1C243,536.4,220.7,555.1,220.7,555.1z"/>
		<path id="path2524" class="st13" d="M174,382.1c4.7-4,139.7-3.7,163.3,0c24,3.7-92-6-129,11.7c-37.3,17.3-34.3,86-34.3,83.3
			c-0.3-2.7-11.7-87-12-95C161.7,374.1,174,382.1,174,382.1z"/>
		<path id="path2526" class="st10" d="M461.4,864.8c0,2.7,17.7,38-29,38s-172,1-172,1s143-10.7,156.7-14.3
			c13.7-3.3-54.7-10.7-54.7-10.7s23.3,3,50.7,0C440,876.1,461.4,864.8,461.4,864.8z"/>
		<path id="path2528" class="st5" d="M134.4,376.8c0,0-47.3-25-60.7-17.3c-13.3,8-11,36.7,0,44.7c11,8.3,38.3-14.7,53.3-19.7
			C142.4,379.4,134.4,376.8,134.4,376.8L134.4,376.8z"/>
	</g>
</g>
</svg>
