<?xml version="1.0" encoding="utf-8"?>
<!-- Generator: Adobe Illustrator 26.1.0, SVG Export Plug-In . SVG Version: 6.00 Build 0)  -->
<svg version="1.1"
	 id="svg3710" xmlns:cc="http://creativecommons.org/ns#" xmlns:dc="http://purl.org/dc/elements/1.1/" xmlns:inkscape="http://www.inkscape.org/namespaces/inkscape" xmlns:rdf="http://www.w3.org/1999/02/22-rdf-syntax-ns#" xmlns:sodipodi="http://sodipodi.sourceforge.net/DTD/sodipodi-0.dtd" xmlns:svg="http://www.w3.org/2000/svg"
	 xmlns="http://www.w3.org/2000/svg" xmlns:xlink="http://www.w3.org/1999/xlink" x="0px" y="0px" viewBox="0 0 256 256"
	 style="enable-background:new 0 0 256 256;" xml:space="preserve">
<style type="text/css">
	.st0{fill:#366E1D;}
	.st1{fill:#B9B3B3;}
	.st2{fill:none;stroke:#A09C9B;stroke-width:3.5278;stroke-miterlimit:10;}
	.st3{fill:#2E2F2E;}
	.st4{fill:none;stroke:#1F201E;stroke-width:3.5278;stroke-miterlimit:10;}
	.st5{fill:#62350F;}
	.st6{fill:#62350F;stroke:#412901;stroke-width:3.5278;stroke-miterlimit:10;}
	.st7{fill:#20211F;}
	.st8{fill:#474848;}
	.st9{fill:#703C14;}
	.st10{fill:#4E2907;}
	.st11{fill:#FDC10C;}
	.st12{fill:none;stroke:#BF8D18;stroke-width:3.5278;stroke-miterlimit:10;}
	.st13{fill:#E5403C;}
	.st14{fill:none;stroke:#A53129;stroke-width:3.5278;stroke-miterlimit:10;}
	.st15{fill:#C23932;}
	.st16{fill:#EA6B6D;}
	.st17{fill:#F5B511;}
	.st18{fill:#6D3105;stroke:#540E00;stroke-width:3.5278;stroke-miterlimit:10;}
	.st19{fill:#C9221B;stroke:#781706;stroke-width:3.5278;stroke-miterlimit:10;}
	.st20{fill:#5E2301;}
	.st21{fill:#F7A422;stroke:#C3841A;stroke-width:3.5278;stroke-miterlimit:10;}
	.st22{fill:none;stroke:#DBA01C;stroke-width:3.5278;stroke-miterlimit:10;}
	.st23{fill:#668C3F;}
	.st24{fill:none;stroke:#366E1D;stroke-width:3.5278;stroke-miterlimit:10;}
	.st25{fill:#FCCD98;}
	.st26{fill:#E89B1F;}
	.st27{fill:#FAB71F;}
	.st28{fill:#B2B0AE;}
	.st29{fill:none;stroke:#727271;stroke-width:3.5278;stroke-miterlimit:10;}
</style>
<sodipodi:namedview  bordercolor="#666666" borderopacity="1.0" id="base" inkscape:current-layer="layer1" inkscape:cx="173.75149" inkscape:cy="67.206525" inkscape:document-rotation="0" inkscape:document-units="px" inkscape:pageopacity="0.0" inkscape:pageshadow="2" inkscape:window-height="1040" inkscape:window-maximized="0" inkscape:window-width="1560" inkscape:window-x="389" inkscape:window-y="21" inkscape:zoom="1.4" pagecolor="#ffffff" showgrid="false" units="px">
	</sodipodi:namedview>
<g id="layer1" inkscape:groupmode="layer" inkscape:label="Warstwa 1">
	<g id="g3202" transform="matrix(0.27534213,0,0,0.28925357,-55.836329,9.2602446)">
		<path id="path2586" class="st0" d="M816.6,75c4.3,0,4.3-6.7,0-6.7C812.3,68.4,812.3,75,816.6,75z"/>
		<path id="path2588" class="st1" d="M499.6,130C552,656.7,552,656.7,552,656.7s42.7,25.7,113.3,21C736.3,673,789,653,789,653
			c38.7-529.7,38.7-529.7,38.7-529.7s-175-15-182.3-15C637.6,108.4,499.6,130,499.6,130L499.6,130z"/>
		<path id="path2590" class="st2" d="M499.6,130C552,656.7,552,656.7,552,656.7s42.7,25.7,113.3,21C736.3,673,789,653,789,653
			c38.7-529.7,38.7-529.7,38.7-529.7s-175-15-182.3-15C637.6,108.4,499.6,130,499.6,130L499.6,130z"/>
		<path id="path2592" class="st3" d="M484.6,155.7c0,0,83.7-7.7,188-10c104.3-2.3,172,7,172,7s0.7-16-2.3-18.3
			c-3-2.7-1.3-9-4.3-17.7c-3-8.3-13-3.7-13-4.7c0-1.3-8.7-62.3-8.7-62.3s-53.3-9.7-150-11C569.6,37,512.6,62,512.6,62
			c-7.3,51.3-7.3,51.3-7.3,51.3s1.3-1-3,0c-4.3,1-8.7,1-8.7,8.3c0,7.7,1.7,11.3-1.3,13.7C489.3,138,484.6,155.7,484.6,155.7
			L484.6,155.7z"/>
		<path id="path2594" class="st4" d="M484.6,155.7c0,0,83.7-7.7,188-10c104.3-2.3,172,7,172,7s0.7-16-2.3-18.3
			c-3-2.7-1.3-9-4.3-17.7c-3-8.3-13-3.7-13-4.7c0-1.3-8.7-62.3-8.7-62.3s-53.3-9.7-150-11C569.6,37,512.6,62,512.6,62
			c-7.3,51.3-7.3,51.3-7.3,51.3s1.3-1-3,0c-4.3,1-8.7,1-8.7,8.3c0,7.7,1.7,11.3-1.3,13.7C489.3,138,484.6,155.7,484.6,155.7
			L484.6,155.7z"/>
		<path id="path2596" class="st5" d="M543.6,573.4h251l25.7-347H509L543.6,573.4z"/>
		<path id="path2598" class="st6" d="M543.6,573.4h251l25.7-347H509L543.6,573.4z"/>
		<path id="path2600" class="st7" d="M791,64.7c3.7,2,49.7,45.3-4.3,43.7c-54-1.3-182.3,3.3-182.3,3.3s119.7-27.3,149-26
			C782.3,87,791,64.7,791,64.7z"/>
		<path id="path2602" class="st8" d="M588.6,63c-42.7,1-60,16.3-62.3,32.3c-2,16-5,24.7-5,24.7s41,1.7,43-17.3
			C566.6,84,588.6,63,588.6,63L588.6,63z"/>
		<path id="path2604" class="st9" d="M542.6,266c0,2.3,23.3,194.3,21.3,199.3c-1.7,5,17.3-114.7,56.7-159.7
			c39-44.7,49-49.7-5.3-49.7C561,256,542.6,266,542.6,266z"/>
		<path id="path2606" class="st10" d="M785.6,357.7c0,0,3.7,190.3-13.7,196.7c-17.7,6.3-188.3-0.7-180.7-2.3
			c7.3-1.3,126-6.3,148-13.7c21.7-7.7-11-38.7-26.3-41c-15-2.7,25.3-8.7,50-27.3C788,451,785.6,357.7,785.6,357.7z"/>
		<path id="path2608" class="st11" d="M833.3,447.7c0-3.7-46-121-50-124.3c-3.7-3.3,3.3-14,18-28.7c14.7-14.7,32-20,32-20
			S864.3,453,863,453S833.3,447.7,833.3,447.7L833.3,447.7z"/>
		<path id="path2610" class="st12" d="M833.3,447.7c0-3.7-46-121-50-124.3c-3.7-3.3,3.3-14,18-28.7c14.7-14.7,32-20,32-20
			S864.3,453,863,453S833.3,447.7,833.3,447.7L833.3,447.7z"/>
		<path id="path2612" class="st11" d="M876.3,480c0,0-40.3-217-28.7-227c11.3-10.3,41-15,43-11.3c2.3,3.7,18.7,197.7,18.7,211.3
			S876.3,480,876.3,480z"/>
		<path id="path2614" class="st12" d="M876.3,480c0,0-40.3-217-28.7-227c11.3-10.3,41-15,43-11.3c2.3,3.7,18.7,197.7,18.7,211.3
			S876.3,480,876.3,480z"/>
		<path id="path2616" class="st11" d="M895.3,480c0,0-58-105.7-49-109.3c9-3.3,25.7-18.3,43.7-15C908,359,924.6,472,924.6,472
			L895.3,480z"/>
		<path id="path2618" class="st12" d="M895.3,480c0,0-58-105.7-49-109.3c9-3.3,25.7-18.3,43.7-15C908,359,924.6,472,924.6,472
			L895.3,480z"/>
		<path id="path2620" class="st11" d="M1026.6,388.7c-0.3-0.3,66.3-157.3,63.7-167.3c-3-10.7-34.7-15.3-43-16.3
			c-8.7-1-46,162-46,162L1026.6,388.7z"/>
		<path id="path2622" class="st12" d="M1026.6,388.7c-0.3-0.3,66.3-157.3,63.7-167.3c-3-10.7-34.7-15.3-43-16.3
			c-8.7-1-46,162-46,162L1026.6,388.7z"/>
		<path id="path2624" class="st11" d="M924.3,454.4c0,0-34.7-260.7-36.7-265.7c-2-4.7,40.7-25,54.3-16c13.7,9,2.3,283,2.3,283
			L924.3,454.4z"/>
		<path id="path2626" class="st12" d="M924.3,454.4c0,0-34.7-260.7-36.7-265.7c-2-4.7,40.7-25,54.3-16c13.7,9,2.3,283,2.3,283
			L924.3,454.4z"/>
		<path id="path2628" class="st11" d="M963.6,368.7c0,0-15.7-198,17.3-199.7c33-2,42.7,9.7,47.3,16.7c4.7,7-26.7,158.3-27.7,183
			c-1,25-4.3,120.7-11.7,125C981.3,498,963.6,368.7,963.6,368.7L963.6,368.7z"/>
		<path id="path2630" class="st12" d="M963.6,368.7c0,0-15.7-198,17.3-199.7c33-2,42.7,9.7,47.3,16.7c4.7,7-26.7,158.3-27.7,183
			c-1,25-4.3,120.7-11.7,125C981.3,498,963.6,368.7,963.6,368.7L963.6,368.7z"/>
		<path id="path2632" class="st11" d="M1071.6,481c0,0,29.3-80.3,45-125c16-44.7,9.7-49.7,7.7-50c-1.7-0.3-56-23-60.3,2
			c-4,25-32.3,143.7-28,154.3C1040.6,473.4,1071.6,481,1071.6,481z"/>
		<path id="path2634" class="st12" d="M1071.6,481c0,0,29.3-80.3,45-125c16-44.7,9.7-49.7,7.7-50c-1.7-0.3-56-23-60.3,2
			c-4,25-32.3,143.7-28,154.3C1040.6,473.4,1071.6,481,1071.6,481z"/>
		<path id="path2636" class="st11" d="M999.6,389.4c0,0-23-123.7-9.7-131.3c13.7-8,47.7-21,50.7-8.7c3,12.3-7,70.3-12,111.7
			C1023.6,402.7,999.6,389.4,999.6,389.4z"/>
		<path id="path2638" class="st12" d="M999.6,389.4c0,0-23-123.7-9.7-131.3c13.7-8,47.7-21,50.7-8.7c3,12.3-7,70.3-12,111.7
			C1023.6,402.7,999.6,389.4,999.6,389.4z"/>
		<path id="path2640" class="st11" d="M1046,459c0,0-1-57.7,6-95c6.7-37.3-14.3-37.3-28-35.3c-13.7,2.3-20.3,38.3-19.7,99
			C1005,488,1046,459,1046,459z"/>
		<path id="path2642" class="st12" d="M1046,459c0,0-1-57.7,6-95c6.7-37.3-14.3-37.3-28-35.3c-13.7,2.3-20.3,38.3-19.7,99
			C1005,488,1046,459,1046,459z"/>
		<path id="path2644" class="st11" d="M929.3,466.4c0,0-34.7-153.7-31.3-163c3.3-9.7,53-20.3,68.3-13c15,7.3-16.7,182.7-16.7,182.7
			L929.3,466.4z"/>
		<path id="path2646" class="st12" d="M929.3,466.4c0,0-34.7-153.7-31.3-163c3.3-9.7,53-20.3,68.3-13c15,7.3-16.7,182.7-16.7,182.7
			L929.3,466.4z"/>
		<path id="path2648" class="st11" d="M964.3,528.4C963.6,527,947,418.4,949,405c2-13.3,31-26.7,51.7-18.3c20.7,8,4,80.7-5.3,127
			C986,560.4,964.3,528.4,964.3,528.4z"/>
		<path id="path2650" class="st12" d="M964.3,528.4C963.6,527,947,418.4,949,405c2-13.3,31-26.7,51.7-18.3c20.7,8,4,80.7-5.3,127
			C986,560.4,964.3,528.4,964.3,528.4z"/>
		<path id="path2652" class="st13" d="M961.3,683.7c126.7,0,79-10.3,110-112.7c31-102.3,43-169.3,40-171.3
			c-5.3-4-30.7,24.7-155.3,24.3c-107.7,0-143-22-154.3-18.3c-8.7,2.7,30,153.3,43,199.7c13,46.3,9,75.3,61.7,78.3
			C959,686.7,961.3,683.7,961.3,683.7L961.3,683.7z"/>
		<path id="path2654" class="st14" d="M961.3,683.7c126.7,0,79-10.3,110-112.7c31-102.3,43-169.3,40-171.3
			c-5.3-4-30.7,24.7-155.3,24.3c-107.7,0-143-22-154.3-18.3c-8.7,2.7,30,153.3,43,199.7c13,46.3,9,75.3,61.7,78.3
			C959,686.7,961.3,683.7,961.3,683.7L961.3,683.7z"/>
		<path id="path2656" class="st15" d="M1033.6,480c49.3-7.3-16.7,57-39.3,90.7c-22.7,34-117,66-117,66s-6.3,22,20.7,22.7
			c26.7,0.7,131.3,8.7,140.3-2.3c9-11.3,5.3-66,15-87c9.7-20.7,28.3-84,27-98.7C1079.3,456.4,1031.6,480.4,1033.6,480L1033.6,480z"
			/>
		<path id="path2658" class="st16" d="M827,434c0.7,1,76.3,1.7,67,15.3c-9,14-30.3,88.7-48,53c-18-35.7-23.3-57-23.3-59.7
			C822.6,440,827,434,827,434L827,434z"/>
		<path id="path2660" class="st17" d="M1085.3,319.7c18-2.3,31.7-4.3,26.3,16c-5,20-16,58.7-16.3,40.3
			C1094.6,357.4,1085.3,319.7,1085.3,319.7L1085.3,319.7z"/>
		<path id="path2662" class="st17" d="M915.6,315.7c16-6.3,32-18.7,27.3-2.7c-5,16,5.3,80.7-5.7,67.7
			C926.6,367.7,915.6,315.7,915.6,315.7z"/>
		<path id="path2664" class="st17" d="M859,263c9,70.3,9,70.3,9,70.3s1-56,4.7-64c3.7-8-9.7-11.3-9.7-11.3L859,263z"/>
		<path id="path2666" class="st17" d="M810,318.4c2-0.3-25.3-18-3.7,25.7s21.7,58.7,23.3,55.3c1.3-3.7-1.7-35,0-46.7
			C831,341,810,318.4,810,318.4z"/>
		<path id="path2668" class="st17" d="M1007,260.4c12-4,26-4.3,24.3-2c-1.3,2.3-4,47-4,47s-8.3-27.3-15-34
			C1006,265,1007,260.4,1007,260.4z"/>
		<path id="path2670" class="st17" d="M1063,224c-2.3,12.7,20.3-9,13,8c-7.7,16.7-16.7,39.3-13,23.3
			C1066.6,239.4,1063.3,221.4,1063,224z"/>
		<path id="path2672" class="st17" d="M986.6,189c8-2.7,30-8,29.3-1c-1,7.3,0.7,17,0,30.3c-1,13.7-1.7,28.3-3,14
			c-1-14.3,2.7-12-6.3-21c-9.3-9-16-14-18-18.3C986.6,189,986.6,189,986.6,189L986.6,189z"/>
		<path id="path2674" class="st17" d="M918.6,182c4-0.3,14.7-1.7,15.3,0c1,1.7,3.3,91,3.3,91s2.3-14-10-38
			C915,211,918.6,182,918.6,182z"/>
		<path id="path2676" class="st18" d="M268,590.7c-2,1.3-17.7-2.7-17.7-40c0-37.7,17.7-37.3,17.7-37.3c403.7,0,403.7,0,403.7,0
			s9-1.3,9,40c0,41.3-33,37.3-33,37.3H268z"/>
		<path id="path2678" class="st19" d="M254,485c-4.3,2.3-11.3,8.7-9.7,18c3.7,19.7,8.7,8,119,11.3c110.3,3,95,5.7,88-22.3
			c-7.3-27.7-120-14-148.3-13C275,479.7,254,485,254,485z"/>
		<path id="path2680" class="st19" d="M476.6,478.4c-21,19-41.3,39,36,39c77,0,152,10.7,165.3,2c13.3-8.7,15.7-30.7-14-35.3
			C634.3,479.7,476.6,478.4,476.6,478.4z"/>
		<path id="path2682" class="st20" d="M402,566c-1-1.7-29.3-31.3-40.7-33c-11.3-1.3,25.3,18.3,34.3,34.7C405,583.7,402,566,402,566z
			"/>
		<path id="path2684" class="st20" d="M452.3,566c-1-1.7-29.3-31.3-40.7-33c-11.3-1.3,25.3,18.3,34.3,34.7
			C455.3,583.7,452.3,566,452.3,566z"/>
		<path id="path2686" class="st20" d="M502,564c-1.3-2-29.7-31.3-41-33c-11.3-1.7,25.7,18.3,34.7,34.3C504.6,581.4,502,564,502,564z
			"/>
		<path id="path2688" class="st21" d="M678.3,589c-426,0-426,0-426,0s-27,72.3,47.3,76c74.3,4,341.7,0,341.7,0S691,662.4,678.3,589
			L678.3,589z"/>
		<path id="path2690" class="st11" d="M249.6,456.7c0,0-9,7.3-9,17.3s7,18.7,78.7,15.7c72-3.3,55.7-3.7,64.3,35.3
			c8.3,39,25,3.7,24.3-19.7c-1-23.3,0-18,29-16.7c28.7,1.3-16.3,75.3,6,109.7c22.7,34.7,40.3,0,34.3-55.3c-6-55.3-18-54,32.3-53
			c0,0,144.7,0,163,0c18.3,0,39-34-42.7-59c-27.3-8.7-251.7-3.3-258.7,0c-7,3-95.3,25.3-106,24.3C255,454.4,249.6,456.7,249.6,456.7
			L249.6,456.7z"/>
		<path id="path2692" class="st22" d="M249.6,456.7c0,0-9,7.3-9,17.3s7,18.7,78.7,15.7c72-3.3,55.7-3.7,64.3,35.3
			c8.3,39,25,3.7,24.3-19.7c-1-23.3,0-18,29-16.7c28.7,1.3-16.3,75.3,6,109.7c22.7,34.7,40.3,0,34.3-55.3c-6-55.3-18-54,32.3-53
			c0,0,144.7,0,163,0c18.3,0,39-34-42.7-59c-27.3-8.7-251.7-3.3-258.7,0c-7,3-95.3,25.3-106,24.3C255,454.4,249.6,456.7,249.6,456.7
			L249.6,456.7z"/>
		<path id="path2694" class="st23" d="M250.6,415c0,0-32.3,6.3-12.7,26.3c19.7,19.7,30.7,12,44,7.7c13-4.3,0,18.7,35.3,15.3
			c35.3-3.3,16.3-28,42.3-21.3c25.7,6.3,7.7,31.7,41.3,21.7c33.7-10.3-8.3-16.7,20-19.3c28.3-2.3,15.7,37,41,20.7
			c25.3-16.7,11.7-28.3,37.7-17c26,11.3,20,25,45.7,5.3c26-19.7,23.7-23.3,35.7-7.3c12,15.7,53.7,22,51.7,5.3
			c-1.7-16.7-1.3-8.7,20-1.3c21.7,7.7,37,1.7,28.3-23c-8.7-24.7-17-19.3-39.7-20.7C619,406,250.6,415,250.6,415L250.6,415z"/>
		<path id="path2696" class="st24" d="M250.6,415c0,0-32.3,6.3-12.7,26.3c19.7,19.7,30.7,12,44,7.7c13-4.3,0,18.7,35.3,15.3
			c35.3-3.3,16.3-28,42.3-21.3c25.7,6.3,7.7,31.7,41.3,21.7c33.7-10.3-8.3-16.7,20-19.3c28.3-2.3,15.7,37,41,20.7
			c25.3-16.7,11.7-28.3,37.7-17c26,11.3,20,25,45.7,5.3c26-19.7,23.7-23.3,35.7-7.3c12,15.7,53.7,22,51.7,5.3
			c-1.7-16.7-1.3-8.7,20-1.3c21.7,7.7,37,1.7,28.3-23c-8.7-24.7-17-19.3-39.7-20.7C619,406,250.6,415,250.6,415L250.6,415z"/>
		<path id="path2698" class="st21" d="M682.3,415.7c-444,0-444,0-444,0S215.3,264,472.6,264C713,264,682.3,415.7,682.3,415.7z"/>
		<path id="path2700" class="st25" d="M391,326c5.3,6.7,11.7,10,13.7,7c2.3-3,0-10.7-5.3-17.3c-5.3-6.7-11.3-9.7-13.7-7
			C383.3,311.7,385.6,319.4,391,326z"/>
		<path id="path2702" class="st25" d="M432.3,297.4c-5.3,6.7-11.3,10-13.7,7c-2.3-3,0-10.7,5.3-17.3c5.3-6.7,11.7-9.7,13.7-7
			C440,283,437.6,290.7,432.3,297.4z"/>
		<path id="path2704" class="st25" d="M460.6,326c5.3,6.7,11.3,10,13.7,7c2.3-3,0-10.7-5.3-17.3c-5.3-6.7-11.3-9.7-13.7-7
			C453,311.7,455.3,319.4,460.6,326L460.6,326z"/>
		<path id="path2706" class="st25" d="M505,296c-5.3,6.7-11.3,10-13.7,7c-2.3-3,0.3-10.7,5.7-17.3c5-6.7,11.3-9.7,13.7-7
			C512.6,281.7,510.3,289.4,505,296z"/>
		<path id="path2708" class="st25" d="M527.6,326c5.3,6.7,11.3,10,13.7,7c2.3-3,0-10.7-5.3-17.3c-5.3-6.7-11.3-9.7-13.7-7
			C520,311.7,522.3,319.4,527.6,326z"/>
		<path id="path2710" class="st25" d="M582.6,313c-5.3,6.7-11.3,9.7-13.7,6.7c-2.3-2.7,0.3-10.3,5.3-17c5.3-6.7,11.7-10,13.7-7
			C590.3,298.7,588,306.4,582.6,313L582.6,313z"/>
		<path id="path2712" class="st25" d="M364.3,313c-5.3,6.7-11.3,9.7-13.7,6.7c-2.3-2.7,0-10.3,5.3-17c5.3-6.7,11.3-10,13.7-7
			C372,298.7,369.6,306.4,364.3,313z"/>
		<path id="path2714" class="st20" d="M541.3,564.7c-1-2-29.3-31.7-40.7-33C489.3,530,526,550,535,566
			C544,582,541.3,564.7,541.3,564.7z"/>
		<path id="path2716" class="st20" d="M588.3,564.7c-1-2-29.3-31.7-40.7-33C536.3,530,573,550,582,566
			C591,582,588.3,564.7,588.3,564.7z"/>
		<path id="path2718" class="st20" d="M638.6,562.4c-1.3-1.7-29.3-31.3-40.7-33c-11.3-1.3,25.3,18.3,34.3,34.7
			C641.3,580,638.6,562.4,638.6,562.4z"/>
		<path id="path2720" class="st20" d="M308,563.7c-1-2-29.3-31.7-40.7-33C256,529,292.6,549,301.6,565
			C310.6,581,308,563.7,308,563.7L308,563.7z"/>
		<path id="path2722" class="st20" d="M354.3,563.7c-1.3-2-29.3-31.7-40.7-33C302.3,529,339,549,348,565
			C357,581,354.3,563.7,354.3,563.7L354.3,563.7z"/>
		<path id="path2724" class="st26" d="M595.6,343.4c0,0,1.7,11.7-111,33c-113,21.7-167.3,24-167.3,24s254,3,309.3-7
			c55.7-10,27.3-52.3,15-57C629.6,331.7,595.6,343.4,595.6,343.4z"/>
		<path id="path2726" class="st26" d="M653,612.4c-2.3,7,19,36-26.3,41.7c-45,5.3-263.3,0-263.3,0S527,650,525,643.7
			c-1.7-6.7-65.7-7-40-9.3c25.7-2.3,85.3-4.3,100.3-9c15-4.7-14.7-10.7-13-10.7C574,614.7,653,612.4,653,612.4L653,612.4z"/>
		<path id="path2728" class="st27" d="M317.3,316.4c4.7,0.3,46,9.7,24,11c-21.7,1-57,16.3-54.7,22.3c2.7,6.3,52.3,1,26.7,13.3
			c-25.7,12-63,20.3-48,21c14.7,0.3,45.3,4,27,6c-18,1.7-41.3,14.7-42,6.3c-0.3-8.3,10.3-40,31.3-61
			C302.6,314,317.3,316.4,317.3,316.4z"/>
		<path id="path2730" class="st27" d="M324.3,321c-2,0,0-11.3,8.7-15c9-3.7-16.7,0.3-24.7,7.3c-7.7,7.3-25.3,20-17.7,18.7
			C298,330.7,324.3,321,324.3,321z"/>
		<path id="path2732" class="st28" d="M1101.6,665.7c-860.3,0-860.3,0-860.3,0c-16.7,0-30,13.3-30,29.7l0,0c0,16.3,13.3,30,30,30
			c860.3,0,860.3,0,860.3,0c16.7,0,30-13.7,30-30l0,0C1131.6,679,1118.3,665.7,1101.6,665.7z"/>
		<path id="path2734" class="st29" d="M1101.6,665.7c-860.3,0-860.3,0-860.3,0c-16.7,0-30,13.3-30,29.7l0,0c0,16.3,13.3,30,30,30
			c860.3,0,860.3,0,860.3,0c16.7,0,30-13.7,30-30l0,0C1131.6,679,1118.3,665.7,1101.6,665.7z"/>
	</g>
</g>
</svg>
