<?xml version="1.0" encoding="utf-8"?>
<!-- Generator: Adobe Illustrator 26.1.0, SVG Export Plug-In . SVG Version: 6.00 Build 0)  -->
<svg version="1.1"
	 id="svg3710" inkscape:version="1.0.1 (3bc2e813f5, 2020-09-07)" sodipodi:docname="Makarony.svg" xmlns:cc="http://creativecommons.org/ns#" xmlns:dc="http://purl.org/dc/elements/1.1/" xmlns:inkscape="http://www.inkscape.org/namespaces/inkscape" xmlns:rdf="http://www.w3.org/1999/02/22-rdf-syntax-ns#" xmlns:sodipodi="http://sodipodi.sourceforge.net/DTD/sodipodi-0.dtd" xmlns:svg="http://www.w3.org/2000/svg"
	 xmlns="http://www.w3.org/2000/svg" xmlns:xlink="http://www.w3.org/1999/xlink" x="0px" y="0px" viewBox="0 0 256 256"
	 style="enable-background:new 0 0 256 256;" xml:space="preserve">
<style type="text/css">
	.st0{fill:#EA911A;}
	.st1{fill:none;stroke:#674710;stroke-width:2.659;stroke-miterlimit:12.562;}
	.st2{fill:#668C3F;}
	.st3{fill:none;stroke:#366E1D;stroke-width:2.659;stroke-miterlimit:12.562;}
	.st4{fill:#A2A09E;}
	.st5{fill:none;stroke:#727271;stroke-width:4.4316;stroke-miterlimit:12.562;}
	.st6{fill:#FAB725;stroke:#674710;stroke-width:2.659;stroke-miterlimit:12.562;}
	.st7{fill:#FAB725;}
	.st8{fill:#EA911A;stroke:#674710;stroke-width:2.659;stroke-miterlimit:12.562;}
	.st9{fill:#6D3105;stroke:#540E00;stroke-width:2.659;stroke-miterlimit:12.562;}
	.st10{fill:#A7A5A3;}
	.st11{fill:#B2B0AE;}
	.st12{fill:#C7C4C1;}
</style>
<sodipodi:namedview  bordercolor="#666666" borderopacity="1.0" id="base" inkscape:current-layer="layer1" inkscape:cx="135.84942" inkscape:cy="156.98442" inkscape:document-rotation="0" inkscape:document-units="px" inkscape:pageopacity="0.0" inkscape:pageshadow="2" inkscape:window-height="1040" inkscape:window-maximized="0" inkscape:window-width="1560" inkscape:window-x="389" inkscape:window-y="21" inkscape:zoom="1.4" pagecolor="#ffffff" showgrid="false" units="px">
	</sodipodi:namedview>
<g id="layer1" inkscape:groupmode="layer" inkscape:label="Warstwa 1">
	<g id="g3252" transform="matrix(0.33236841,0,0,0.33236841,-64.660368,86.349647)">
		<path id="path2342" class="st0" d="M493.5,290.8c-2.7,0-2.7,0-2.7,0c-5.3,0-9.7-4.3-9.7-9.7c0-339.3,0-339.3,0-339.3
			c0-5.3,4.3-10,9.7-10c2.7,0,2.7,0,2.7,0c5.3,0,10,4.7,10,10c0,339.3,0,339.3,0,339.3C503.5,286.5,498.9,290.8,493.5,290.8z"/>
		<path id="path2344" class="st1" d="M493.5,290.8c-2.7,0-2.7,0-2.7,0c-5.3,0-9.7-4.3-9.7-9.7c0-339.3,0-339.3,0-339.3
			c0-5.3,4.3-10,9.7-10c2.7,0,2.7,0,2.7,0c5.3,0,10,4.7,10,10c0,339.3,0,339.3,0,339.3C503.5,286.5,498.9,290.8,493.5,290.8z"/>
		<path id="path2346" class="st2" d="M596.9,220.5c0,0,7.3-25-14.3-56.3c-21.3-31.7-45.3-38.3-45.3-38.3s-7.7,23,8.3,60.3
			C561.9,223.5,596.9,220.5,596.9,220.5z"/>
		<path id="path2348" class="st3" d="M596.9,220.5c0,0,7.3-25-14.3-56.3c-21.3-31.7-45.3-38.3-45.3-38.3s-7.7,23,8.3,60.3
			C561.9,223.5,596.9,220.5,596.9,220.5z"/>
		<path id="path2350" class="st4" d="M341.9-68.2c42,8,208.7,12.3,241.3,12.3c37.3,0,21.7-50.3,21.7-56c0-0.3,0.3-0.7,0.7-0.7
			c301.7,9,301.7,9,301.7,9c1.3,0,2.7-1.3,2.7-2.7c0-48.7,0-48.7,0-48.7c0-1.3-1.3-2.7-2.7-2.7c-300.7,10.7-300.7,10.7-300.7,10.7
			c-0.3,0-0.7-0.3-0.7-0.7c-0.3-4.7,1.3-51.7-25-54.7c-41.7-5-234.3,26.3-233.7,26.7c6.7,2.7,49,9,110.3,6.7
			c76.3-3,98.7-8.3,101.7,3.7c3,12-8.7,14.3-62.3,17.3c-65.7,4-185,18.7-184.3,19c14.7,2.3,125.7,14.7,158.7,12.3
			c40-3,66.7-3.7,78.7-2c11.7,1.7,21.3,22,6.7,25.7C531.5-86.8,339.5-68.5,341.9-68.2L341.9-68.2z"/>
		<path id="path2352" class="st5" d="M341.9-68.2c42,8,208.7,12.3,241.3,12.3c37.3,0,21.7-50.3,21.7-56c0-0.3,0.3-0.7,0.7-0.7
			c301.7,9,301.7,9,301.7,9c1.3,0,2.7-1.3,2.7-2.7c0-48.7,0-48.7,0-48.7c0-1.3-1.3-2.7-2.7-2.7c-300.7,10.7-300.7,10.7-300.7,10.7
			c-0.3,0-0.7-0.3-0.7-0.7c-0.3-4.7,1.3-51.7-25-54.7c-41.7-5-234.3,26.3-233.7,26.7c6.7,2.7,49,9,110.3,6.7
			c76.3-3,98.7-8.3,101.7,3.7c3,12-8.7,14.3-62.3,17.3c-65.7,4-185,18.7-184.3,19c14.7,2.3,125.7,14.7,158.7,12.3
			c40-3,66.7-3.7,78.7-2c11.7,1.7,21.3,22,6.7,25.7C531.5-86.8,339.5-68.5,341.9-68.2L341.9-68.2z"/>
		<path id="path2354" class="st6" d="M472.5,290.8c-2.7,0-2.7,0-2.7,0c-5.3,0-9.7-4.3-9.7-9.7c0-339.3,0-339.3,0-339.3
			c0-5.3,4.3-10,9.7-10c2.7,0,2.7,0,2.7,0c5.3,0,10,4.7,10,10c0,339.3,0,339.3,0,339.3C482.5,286.5,477.9,290.8,472.5,290.8z"/>
		<path id="path2356" class="st0" d="M560.2,242.8c4.7,0.3,67.3-62.3,146-31c79,31.3,80.7,75.7,80.7,75.7c-40,35-40,35-40,35
			c-182-73.7-182-73.7-182-73.7L560.2,242.8z"/>
		<path id="path2358" class="st1" d="M560.2,242.8c4.7,0.3,67.3-62.3,146-31c79,31.3,80.7,75.7,80.7,75.7c-40,35-40,35-40,35
			c-182-73.7-182-73.7-182-73.7L560.2,242.8z"/>
		<path id="path2360" class="st7" d="M566.9,258.8c0,0,76-38.3,130.3-28.3c54.3,10,75,69.7,75,69.7s-41,38.7-45.7,37.3
			C721.9,336.2,566.9,258.8,566.9,258.8z"/>
		<path id="path2362" class="st1" d="M566.9,258.8c0,0,76-38.3,130.3-28.3c54.3,10,75,69.7,75,69.7s-41,38.7-45.7,37.3
			C721.9,336.2,566.9,258.8,566.9,258.8z"/>
		<path id="path2364" class="st8" d="M595.5,275.5c0,0,49.3-39,91.7-31.7c53,9,78,71.3,78,71.3L595.5,275.5z"/>
		<path id="path2366" class="st7" d="M604.5,290.2c0.7,0.3,36.3-25.3,67.3-12.7c31,13,61.7,46,61.7,46L604.5,290.2z"/>
		<path id="path2368" class="st1" d="M604.5,290.2c0.7,0.3,36.3-25.3,67.3-12.7c31,13,61.7,46,61.7,46L604.5,290.2z"/>
		<path id="path2370" class="st9" d="M688.2,228.8c0,31-25,55.7-55.7,55.7c-30.7,0-55.7-24.7-55.7-55.7c0-30.7,25-55.7,55.7-55.7
			C663.2,173.2,688.2,198.2,688.2,228.8z"/>
		<path id="path2372" class="st10" d="M668.9,294.8c-49.3,0.3-85.7-51.7-108.7-52c-8.3,0-83,25.7-91.7,52.3c0-0.3,0-0.3,0-0.3
			s-1.7,0-0.3,0.3c-207.3,0.3-281.3,33.3-260.7,36.7c21.7,3.3,108.7,12.7,110.3,12.7c155.3,27.7,155.3,27.7,155.3,27.7
			c109.7-8.3,109.7-8.3,109.7-8.3c105.3,8,105.3,8,105.3,8c155.3-27.7,155.3-27.7,155.3-27.7c1.7,0,88.7-9.3,110.3-12.7
			C975.5,328.2,894.5,292.5,668.9,294.8L668.9,294.8z"/>
		<path id="path2374" class="st5" d="M668.9,294.8c-49.3,0.3-85.7-51.7-108.7-52c-8.3,0-83,25.7-91.7,52.3c0-0.3,0-0.3,0-0.3
			s-1.7,0-0.3,0.3c-207.3,0.3-281.3,33.3-260.7,36.7c21.7,3.3,108.7,12.7,110.3,12.7c155.3,27.7,155.3,27.7,155.3,27.7
			c109.7-8.3,109.7-8.3,109.7-8.3c105.3,8,105.3,8,105.3,8c155.3-27.7,155.3-27.7,155.3-27.7c1.7,0,88.7-9.3,110.3-12.7
			C975.5,328.2,894.5,292.5,668.9,294.8L668.9,294.8z"/>
		<path id="path2376" class="st0" d="M672.9,294.8c-3.7-1.3-38-84.3-107-76.7c-68.7,7.7-80.3,53-80.3,53c23,48.3,23,48.3,23,48.3
			c159.3-20,159.3-20,159.3-20L672.9,294.8z"/>
		<path id="path2378" class="st1" d="M672.9,294.8c-3.7-1.3-38-84.3-107-76.7c-68.7,7.7-80.3,53-80.3,53c23,48.3,23,48.3,23,48.3
			c159.3-20,159.3-20,159.3-20L672.9,294.8z"/>
		<path id="path2380" class="st7" d="M664.2,309.2c0,0-50.7-62.3-95.3-69c-45-6.3-75,48.3-75,48.3s23,52.3,27,52.3
			C524.5,340.8,664.2,309.2,664.2,309.2L664.2,309.2z"/>
		<path id="path2382" class="st1" d="M664.2,309.2c0,0-50.7-62.3-95.3-69c-45-6.3-75,48.3-75,48.3s23,52.3,27,52.3
			C524.5,340.8,664.2,309.2,664.2,309.2L664.2,309.2z"/>
		<path id="path2384" class="st8" d="M637.5,317.5c0,0-29.3-55-64-60.7c-43.7-7.3-77.7,49-77.7,49L637.5,317.5z"/>
		<path id="path2386" class="st7" d="M622.2,325.2c-1,0-25.3-52-55.3-47c-30.3,5.3-65.3,39.3-65.3,39.3L622.2,325.2z"/>
		<path id="path2388" class="st1" d="M622.2,325.2c-1,0-25.3-52-55.3-47c-30.3,5.3-65.3,39.3-65.3,39.3L622.2,325.2z"/>
		<path id="path2390" class="st0" d="M877.2,343.8c-6.7-1.3-66.3-89-186.3-80.7c-120,8-140.3,55.7-140.3,55.7
			c40.3,50.7,40.3,50.7,40.3,50.7c277.7-20.7,277.7-20.7,277.7-20.7L877.2,343.8z"/>
		<path id="path2392" class="st1" d="M877.2,343.8c-6.7-1.3-66.3-89-186.3-80.7c-120,8-140.3,55.7-140.3,55.7
			c40.3,50.7,40.3,50.7,40.3,50.7c277.7-20.7,277.7-20.7,277.7-20.7L877.2,343.8z"/>
		<path id="path2394" class="st7" d="M840.9,344.5c0,0-67-51.3-145-58.3c-78-6.7-130.7,51-130.7,51s40.3,55,47,55
			C618.9,392.2,840.9,344.5,840.9,344.5z"/>
		<path id="path2396" class="st1" d="M840.9,344.5c0,0-67-51.3-145-58.3c-78-6.7-130.7,51-130.7,51s40.3,55,47,55
			C618.9,392.2,840.9,344.5,840.9,344.5z"/>
		<path id="path2398" class="st8" d="M815.9,367.8c0,0-51.3-58-112-64c-76-7.7-135,51.7-135,51.7L815.9,367.8z"/>
		<path id="path2400" class="st9" d="M495.9,251.2c0,30.7-25,55.7-55.7,55.7c-30.7,0-55.7-25-55.7-55.7c0-31,25-56,55.7-56
			C470.9,195.2,495.9,220.2,495.9,251.2z"/>
		<path id="path2402" class="st7" d="M788.9,375.8c-1.7,0-44-55-96.7-49.3c-52.7,5.3-113.7,41.3-113.7,41.3L788.9,375.8z"/>
		<path id="path2404" class="st1" d="M788.9,375.8c-1.7,0-44-55-96.7-49.3c-52.7,5.3-113.7,41.3-113.7,41.3L788.9,375.8z"/>
		<path id="path2406" class="st0" d="M254.2,336.5c7.3-0.7,77-80.7,203.7-62.7c127,17.7,145,63,145,63c-46.7,43-46.7,43-46.7,43
			c-293-43.3-293-43.3-293-43.3L254.2,336.5z"/>
		<path id="path2408" class="st1" d="M254.2,336.5c7.3-0.7,77-80.7,203.7-62.7c127,17.7,145,63,145,63c-46.7,43-46.7,43-46.7,43
			c-293-43.3-293-43.3-293-43.3L254.2,336.5z"/>
		<path id="path2410" class="st7" d="M272.2,342.2c0,0,95.7-48.3,179-47.7c83,0.7,134.7,57.7,134.7,57.7s-48.3,38.3-55.7,37.7
			C523.2,389.2,272.2,342.2,272.2,342.2L272.2,342.2z"/>
		<path id="path2412" class="st1" d="M272.2,342.2c0,0,95.7-48.3,179-47.7c83,0.7,134.7,57.7,134.7,57.7s-48.3,38.3-55.7,37.7
			C523.2,389.2,272.2,342.2,272.2,342.2L272.2,342.2z"/>
		<path id="path2414" class="st8" d="M317.9,358.5c0,0,55-47.7,119.7-46.7c65,0.7,143,57,143,57L317.9,358.5z"/>
		<path id="path2416" class="st7" d="M345.9,368.2c1.7,0.3,50.3-46.3,106-36.7c55.3,9.3,117.7,47.7,117.7,47.7L345.9,368.2z"/>
		<path id="path2418" class="st1" d="M345.9,368.2c1.7,0.3,50.3-46.3,106-36.7c55.3,9.3,117.7,47.7,117.7,47.7L345.9,368.2z"/>
		<path id="path2420" class="st11" d="M236.5,335.5c0,0,43.3,14.3,87.3,85.3c38.7,62,62.7,61.7,224,61.7c161.7,0,217.3,0.3,279-71
			c52-60,90-75,90-75s-142,28-371,28C316.5,364.5,236.5,335.5,236.5,335.5z"/>
		<path id="path2422" class="st5" d="M236.5,335.5c0,0,43.3,14.3,87.3,85.3c38.7,62,62.7,61.7,224,61.7c161.7,0,217.3,0.3,279-71
			c52-60,90-75,90-75s-142,28-371,28C316.5,364.5,236.5,335.5,236.5,335.5z"/>
		<path id="path2424" class="st6" d="M459.2-46.8c-5.7,0-5.7,0-5.7,0c-5.3,0-9.7-4.3-9.7-9.7c0-145.3,0-145.3,0-145.3
			c0-5.3,4.3-9.7,9.7-9.7c5.7,0,5.7,0,5.7,0c5.3,0,9.7,4.3,9.7,9.7c0,145.3,0,145.3,0,145.3C468.9-51.2,464.5-46.8,459.2-46.8
			L459.2-46.8z"/>
		<path id="path2426" class="st0" d="M482.9-14.8c-5.3,0-5.3,0-5.3,0c-5.7,0-10-4.3-10-9.7c0-209.3,0-209.3,0-209.3
			c0-5.3,4.3-9.7,10-9.7c5.3,0,5.3,0,5.3,0c5.3,0,10,4.3,10,9.7c0,209.3,0,209.3,0,209.3C492.9-19.2,488.2-14.8,482.9-14.8
			L482.9-14.8z"/>
		<path id="path2428" class="st1" d="M482.9-14.8c-5.3,0-5.3,0-5.3,0c-5.7,0-10-4.3-10-9.7c0-209.3,0-209.3,0-209.3
			c0-5.3,4.3-9.7,10-9.7c5.3,0,5.3,0,5.3,0c5.3,0,10,4.3,10,9.7c0,209.3,0,209.3,0,209.3C492.9-19.2,488.2-14.8,482.9-14.8
			L482.9-14.8z"/>
		<path id="path2430" class="st6" d="M508.2-20.2c-5.7,0-5.7,0-5.7,0c-5.3,0-9.7-4.3-9.7-9.7c0-188,0-188,0-188c0-5.7,4.3-10,9.7-10
			c5.7,0,5.7,0,5.7,0c5.3,0,9.7,4.3,9.7,10c0,188,0,188,0,188C517.9-24.5,513.5-20.2,508.2-20.2z"/>
		<path id="path2432" class="st0" d="M533.2-40.2c-5.3,0-5.3,0-5.3,0c-5.7,0-10-4.3-10-9.7c0-157.3,0-157.3,0-157.3
			c0-5.7,4.3-10,10-10c5.3,0,5.3,0,5.3,0c5.3,0,10,4.3,10,10c0,157.3,0,157.3,0,157.3C543.2-44.5,538.5-40.2,533.2-40.2L533.2-40.2z
			"/>
		<path id="path2434" class="st1" d="M533.2-40.2c-5.3,0-5.3,0-5.3,0c-5.7,0-10-4.3-10-9.7c0-157.3,0-157.3,0-157.3
			c0-5.7,4.3-10,10-10c5.3,0,5.3,0,5.3,0c5.3,0,10,4.3,10,10c0,157.3,0,157.3,0,157.3C543.2-44.5,538.5-40.2,533.2-40.2L533.2-40.2z
			"/>
		<path id="path2436" class="st12" d="M752.2,408.8c-44.7,11-181.7,21.7-119,28.7c62.7,7.3,124.3,4.7,135.7-20
			C780.5,392.8,752.2,408.8,752.2,408.8z"/>
	</g>
</g>
</svg>
