<?xml version="1.0" encoding="utf-8"?>
<!-- Generator: Adobe Illustrator 26.1.0, SVG Export Plug-In . SVG Version: 6.00 Build 0)  -->
<svg version="1.1"
	 id="svg3710" sodipodi:docname="Pizza.svg" xmlns:cc="http://creativecommons.org/ns#" xmlns:dc="http://purl.org/dc/elements/1.1/" xmlns:inkscape="http://www.inkscape.org/namespaces/inkscape" xmlns:rdf="http://www.w3.org/1999/02/22-rdf-syntax-ns#" xmlns:sodipodi="http://sodipodi.sourceforge.net/DTD/sodipodi-0.dtd" xmlns:svg="http://www.w3.org/2000/svg"
	 xmlns="http://www.w3.org/2000/svg" xmlns:xlink="http://www.w3.org/1999/xlink" x="0px" y="0px" viewBox="0 0 256 256"
	 style="enable-background:new 0 0 256 256;" xml:space="preserve">
<style type="text/css">
	.st0{fill:#905110;stroke:#663904;stroke-width:4.4291;stroke-miterlimit:12.555;}
	.st1{fill:#FDC10C;}
	.st2{fill:none;stroke:#DBA01C;stroke-width:4.4291;stroke-miterlimit:12.555;}
	.st3{fill:#C9221B;stroke:#A81E15;stroke-width:4.4291;stroke-miterlimit:12.555;}
	.st4{fill:#D7B498;stroke:#8A7563;stroke-width:4.4291;stroke-miterlimit:12.555;}
</style>
<sodipodi:namedview  bordercolor="#666666" borderopacity="1.0" id="base" inkscape:current-layer="layer1" inkscape:cx="135.84942" inkscape:cy="156.98442" inkscape:document-rotation="0" inkscape:document-units="px" inkscape:pageopacity="0.0" inkscape:pageshadow="2" inkscape:window-height="1040" inkscape:window-maximized="0" inkscape:window-width="1560" inkscape:window-x="389" inkscape:window-y="21" inkscape:zoom="1.4" pagecolor="#ffffff" showgrid="false" units="px">
	</sodipodi:namedview>
<g id="layer1" inkscape:groupmode="layer" inkscape:label="Warstwa 1">
	<g id="g3459" transform="matrix(0.33218491,0,0,0.33218491,10.410779,82.703648)">
		<path id="path2172" class="st0" d="M732.4,283.4C395.1,178.1,395.1,178.1,395.1,178.1c113.3,339.3,113.3,339.3,113.3,339.3
			C615.1,480.7,699.1,393.4,732.4,283.4z"/>
		<path id="path2174" class="st1" d="M696.4,272.4c-301.3-94.3-301.3-94.3-301.3-94.3c101,303,101,303,101,303
			C591.7,448.4,666.7,370.4,696.4,272.4z"/>
		<path id="path2176" class="st2" d="M696.4,272.4c-301.3-94.3-301.3-94.3-301.3-94.3c101,303,101,303,101,303
			C591.7,448.4,666.7,370.4,696.4,272.4z"/>
		<path id="path2178" class="st1" d="M330.1,119.4c301.3,94.3,301.3,94.3,301.3,94.3c9-30,13.7-61.7,13.7-94.3
			c0-176.7-141-320-315-320s-315,143.3-315,320s141,319.7,315,319.7c35.3,0,69.3-5.7,101-16.7L330.1,119.4z"/>
		<path id="path2180" class="st2" d="M330.1,119.4c301.3,94.3,301.3,94.3,301.3,94.3c9-30,13.7-61.7,13.7-94.3
			c0-176.7-141-320-315-320s-315,143.3-315,320s141,319.7,315,319.7c35.3,0,69.3-5.7,101-16.7L330.1,119.4z"/>
		<path id="path2182" class="st0" d="M431.1,422.4c-31.7,11-65.7,16.7-101,16.7c-174,0-315-143-315-319.7s141-320,315-320
			s315,143.3,315,320c0,32.7-4.7,64.3-13.7,94.3c35.7,11,35.7,11,35.7,11c10.3-33.3,15.7-68.7,15.7-105.3c0-197.7-158-358-352.7-358
			S-22.6-78.3-22.6,119.4s158,358,352.7,358c39.7,0,77.7-6.7,113-19L431.1,422.4z"/>
		<path id="path2184" class="st3" d="M556.1,375.1c0,14.3-11.3,26-25.7,26c-14,0-25.7-11.7-25.7-26s11.7-26,25.7-26
			C544.7,349.1,556.1,360.7,556.1,375.1z"/>
		<path id="path2186" class="st3" d="M615.1,135.4c0,14.3-11.7,26-25.7,26c-14,0-25.7-11.7-25.7-26c0-14.3,11.7-26,25.7-26
			C603.4,109.4,615.1,121.1,615.1,135.4z"/>
		<path id="path2188" class="st3" d="M504.7,254.4c0,14.3-11.3,26-25.3,26c-14.3,0-25.7-11.7-25.7-26s11.3-26,25.7-26
			C493.4,228.4,504.7,240.1,504.7,254.4z"/>
		<path id="path2190" class="st3" d="M277.7,216.7c-13,6-28,0.7-34-12.3c-6-13.3-0.7-28.7,12.3-34.7c12.7-6,28-0.3,34,12.7
			C296.1,195.4,290.4,210.7,277.7,216.7z"/>
		<path id="path2192" class="st3" d="M352.7,388.7c-12.7,6-28,0.3-34-12.7c-6-13-0.3-28.3,12.3-34.3c12.7-6.3,28-0.7,34,12.3
			C371.1,367.1,365.4,382.7,352.7,388.7z"/>
		<path id="path2194" class="st3" d="M564.4,21.1c-13,6-28.3,0.3-34.3-12.7c-5.7-13-0.3-28.3,12.7-34.3c12.7-6.3,28-0.7,34,12.3
			C582.7-0.6,577.1,15.1,564.4,21.1z"/>
		<path id="path2196" class="st3" d="M96.7,47.4c-13.3-5.3-19.3-20.7-14-34c5.3-13,20.3-19.3,33.3-14c13.3,5.7,19.3,20.7,14,34
			C124.7,46.7,109.7,53.1,96.7,47.4z"/>
		<path id="path2198" class="st3" d="M80.7,248.7c-13.3-5.7-19.3-20.7-14-34c5.3-13.3,20.3-19.7,33.7-14c13,5.3,19,20.7,13.7,34
			C108.7,247.7,93.7,254.1,80.7,248.7z"/>
		<path id="path2200" class="st3" d="M399.7,73.4c-13-5.3-19.3-20.7-14-34c5.3-13,20.3-19.3,33.7-14c13,5.7,19,20.7,13.7,34
			C427.7,72.7,412.7,79.1,399.7,73.4z"/>
		<path id="path2202" class="st3" d="M271.7,87.1c-12.7,6-28,0.3-34-12.7c-6-13-0.3-28.3,12.3-34.7c13-6,28-0.3,34,12.7
			C290.1,65.4,284.7,80.7,271.7,87.1z"/>
		<path id="path2204" class="st3" d="M248.4-81.3c-13,6-28,0.7-34-12.3c-6-13-0.7-28.7,12.3-34.7c12.7-6,28-0.3,34,12.7
			C266.7-102.6,261.1-87.3,248.4-81.3z"/>
		<path id="path2206" class="st3" d="M438.7-89.6c-12.7,6-28,0.3-34-12.7c-6-13-0.3-28.3,12.3-34.7c13-6,28.3-0.3,34.3,12.7
			S451.7-95.9,438.7-89.6L438.7-89.6z"/>
		<path id="path2208" class="st4" d="M487.7,113.4c0,0,0.7,14.7,14.3,14.7c14,0,14.3-14.7,14.3-14.7c0-4,0-4,0-4
			c0-2,1.7-3.7,3.7-3.7c12,0,12,0,12,0c2.3,0,4-2,3.7-4c-1-9-6.7-28.3-34-28.3c-27,0-36,18.3-38.7,27.3c-0.7,2.3,1,4.7,3.7,4.7
			c17,0,17,0,17,0c1.7,0,3.3,1.3,3.7,3.3L487.7,113.4z"/>
		<path id="path2210" class="st4" d="M573.1,294.4c0,0-13.7,4.7-10.3,18c3.7,13.7,17.7,10.3,17.7,10.3c3.7-1,3.7-1,3.7-1
			c2-0.7,4,0.7,4.7,2.7c3,12,3,12,3,12c0.7,2,3,3.3,5,2.3c8-3.3,25-13.7,18-40.7c-6.7-26.3-26.3-30.3-35.7-31
			c-2.3,0-4.3,2.3-3.7,4.7c4.3,16.7,4.3,16.7,4.3,16.7c0.3,2-0.7,4-2.3,4.7L573.1,294.4z"/>
		<path id="path2212" class="st4" d="M207.4,326.1c0,0,12,8.3,20.3-2.3c8.7-11-2.3-20.3-2.3-20.3c-3-2.7-3-2.7-3-2.7
			c-1.7-1.3-2-3.7-0.7-5c7.7-9.7,7.7-9.7,7.7-9.7c1.3-2,1-4.3-1-5.7c-7.3-4.7-26-12.3-43,9.7c-17,21-8.3,39.7-3.3,47.3
			c1.7,2.3,4.7,2.3,6,0.3c10.7-13.3,10.7-13.3,10.7-13.3c1.3-1.7,3.3-2,5-1L207.4,326.1z"/>
		<path id="path2214" class="st4" d="M323.7-9.3c0,0,4.7,14,17.7,10.3c13.3-3.3,10-18,10-18c-1-3.7-1-3.7-1-3.7
			c-0.7-2,0.7-4,2.7-4.3c11.7-3.3,11.7-3.3,11.7-3.3c2-0.7,3.3-3,2.3-5c-3.3-8.3-13.7-25.7-40.3-18.3c-25.7,7.3-29.7,27.3-30,36.7
			c-0.3,2.3,2.3,4.3,4.7,3.7c16.3-4.7,16.3-4.7,16.3-4.7c1.7-0.3,3.7,0.7,4.3,2.3L323.7-9.3z"/>
		<path id="path2216" class="st4" d="M148.1,104.1c0,0-12.7-7.7-20.3,3.7c-8,11.3,3.7,20,3.7,20c3.3,2.3,3.3,2.3,3.3,2.3
			c1.7,1,2,3.3,0.7,5.3c-7,10-7,10-7,10c-1,2-0.7,4.3,1.3,5.3c7.7,4.3,26.7,10.7,42.7-12.3c15.3-22.3,5.7-40.3,0-47.7
			c-1.7-2-4.7-1.7-6,0.3c-9.7,14-9.7,14-9.7,14c-1.3,1.7-3.3,2-5,1L148.1,104.1z"/>
	</g>
</g>
</svg>
