<?xml version="1.0" encoding="utf-8"?>
<!-- Generator: Adobe Illustrator 26.1.0, SVG Export Plug-In . SVG Version: 6.00 Build 0)  -->
<svg version="1.1"
	 id="svg3710" inkscape:version="1.0.1 (3bc2e813f5, 2020-09-07)" xmlns:cc="http://creativecommons.org/ns#" xmlns:dc="http://purl.org/dc/elements/1.1/" xmlns:inkscape="http://www.inkscape.org/namespaces/inkscape" xmlns:rdf="http://www.w3.org/1999/02/22-rdf-syntax-ns#" xmlns:sodipodi="http://sodipodi.sourceforge.net/DTD/sodipodi-0.dtd" xmlns:svg="http://www.w3.org/2000/svg"
	 xmlns="http://www.w3.org/2000/svg" xmlns:xlink="http://www.w3.org/1999/xlink" x="0px" y="0px" viewBox="0 0 256 256"
	 style="enable-background:new 0 0 256 256;" xml:space="preserve">
<style type="text/css">
	.st0{fill:#4C792D;}
	.st1{fill:#4C792D;stroke:#30641A;stroke-width:4.3778;stroke-miterlimit:12.4095;}
	.st2{fill:#668C3F;stroke:#366E1D;stroke-width:4.3778;stroke-miterlimit:12.4095;}
	.st3{fill:#336120;}
	.st4{fill:#D3461C;}
	.st5{fill:none;stroke:#B21917;stroke-width:2.6267;stroke-miterlimit:12.4095;}
	.st6{fill:#821510;}
	.st7{fill:none;stroke:#7B1308;stroke-width:2.6267;stroke-miterlimit:12.4095;}
	.st8{fill:#A9191A;}
	.st9{fill:none;stroke:#941710;stroke-width:2.6267;stroke-miterlimit:12.4095;}
	.st10{fill:#A6ACAD;}
	.st11{fill:none;stroke:#66747C;stroke-width:7.88;stroke-miterlimit:12.4095;}
	.st12{fill:#B4B9BA;}
</style>
<sodipodi:namedview  bordercolor="#666666" borderopacity="1.0" id="base" inkscape:current-layer="layer1" inkscape:cx="173.75149" inkscape:cy="67.206525" inkscape:document-rotation="0" inkscape:document-units="px" inkscape:pageopacity="0.0" inkscape:pageshadow="2" inkscape:window-height="1040" inkscape:window-maximized="0" inkscape:window-width="1560" inkscape:window-x="389" inkscape:window-y="21" inkscape:zoom="1.4" pagecolor="#ffffff" showgrid="false" units="px">
	</sodipodi:namedview>
<g id="layer1" inkscape:groupmode="layer" inkscape:label="Warstwa 1">
	<g id="g3285" transform="matrix(0.32833405,0,0,0.32833405,5.4689331,10.645704)">
		<path id="path2280" class="st0" d="M507.2,650.2c-4-8-103-128.3-142.3-134.7c-39.7-6,88.7,74.7,120.3,140.3
			C516.6,721.2,507.2,650.2,507.2,650.2z"/>
		<path id="path2282" class="st1" d="M487.6,282.5c-1,2.7-34.7-19.3-29-35.7c5.7-16.7,23-19.3-4.7-21c-27.7-1.7-23.3,12-23.3-18.7
			c0.3-30.3-21.3-15.7-33-29.7c-11.7-14-2.3-35-4.7-43.7c-2.3-8.3-17.3,0.3-31.3,0c-13.7-0.3-44.7-42.7-49.3-47.3
			c-4.7-4.7-7.3,19-37,17.7c-30-1.3-41.7-34.7-55.3-25.3c-14,9.7-24.3,17.7-16.3,34.3c8,16.7,12.7,22.3-13.7,23
			c-26.3,1-49.3-6.3-48.7,14.7c1,20.7-3.3,20.7,17.3,37.3c20.7,16.7,43.3,7.7,34.7,31.7c-9,24-31.7,35-16,54c16,19,54.3,19,56.3,42
			c2,23.3,48.3,105.3,58.3,119.7c10.3,14.3,19.3,45,72,34.7c52.3-10.7,59.3,6.7,87-32.3c27.7-39,39.3-53,39.3-83
			C490.2,325.2,487.6,282.5,487.6,282.5z"/>
		<path id="path2284" class="st2" d="M332.2,384.5c-3.3,1-24.3,14-36-2.7c-11.3-16.3,2-42-25.3-40c-27.7,2.3-27.7,26.7-37.3,0
			c-9.7-26.7,3.3-102-47-37.3c-51.7,66.3-52.3,6-74,32.7c-22,26.7,5.7,36-13.7,47c-19.3,10.7-36.3,9.3-23,32.3
			c13,23.3,23.7,18.3,20.3,36.3c-3.7,18.3-9.3,37.3,25.7,41c34.7,4,53,5.3,87,6.3c34,1,77,8.7,97.7-9c21-17.7,39-53,39-68.7
			C345.6,407.2,332.2,384.5,332.2,384.5L332.2,384.5z"/>
		<path id="path2286" class="st3" d="M386.2,334.5c-2.7-11-91-188.3-138.3-207c-47.3-19,89,117.3,109.3,207.7
			C377.9,425.5,386.2,334.5,386.2,334.5z"/>
		<path id="path2288" class="st4" d="M541.2-8.5c39,20,53.7,68.7,32.7,109c-20.7,40-69,56-107.7,35.7L541.2-8.5z"/>
		<path id="path2290" class="st5" d="M541.2-8.5c39,20,53.7,68.7,32.7,109c-20.7,40-69,56-107.7,35.7L541.2-8.5z"/>
		<path id="path2292" class="st6" d="M462.9,140.8c42.3,22,94,5.7,116-36.7c22-42,5.3-94-36.7-116c6.7-12.3,6.7-12.3,6.7-12.3
			c49,25.3,68,85.7,42.7,135c-25.7,49-86,68.3-135,42.7L462.9,140.8z"/>
		<path id="path2294" class="st7" d="M462.9,140.8c42.3,22,94,5.7,116-36.7c22-42,5.3-94-36.7-116c6.7-12.3,6.7-12.3,6.7-12.3
			c49,25.3,68,85.7,42.7,135c-25.7,49-86,68.3-135,42.7L462.9,140.8z"/>
		<path id="path2296" class="st8" d="M521.9,36.8c0,0,15.7-3.7,7.7-14c-1.7-2-3-3-4.3-3c7-13.3,7-13.3,7-13.3c5.3,3,9.3,6.7,9.3,6.7
			c16,19.3,9,30-5.7,28C520.9,39.5,521.9,36.8,521.9,36.8z"/>
		<path id="path2298" class="st9" d="M521.9,36.8c0,0,15.7-3.7,7.7-14c-1.7-2-3-3-4.3-3c7-13.3,7-13.3,7-13.3c5.3,3,9.3,6.7,9.3,6.7
			c16,19.3,9,30-5.7,28C520.9,39.5,521.9,36.8,521.9,36.8z"/>
		<path id="path2300" class="st8" d="M483.2,97.8c0.3,0,0.7-0.3,0.7-0.3c5-4.3,12.7-3,15.3,3c4.3,9.3,7,20-1,24c-6.7,3-17-0.3-26-5
			L483.2,97.8z"/>
		<path id="path2302" class="st9" d="M483.2,97.8c0.3,0,0.7-0.3,0.7-0.3c5-4.3,12.7-3,15.3,3c4.3,9.3,7,20-1,24c-6.7,3-17-0.3-26-5
			L483.2,97.8z"/>
		<path id="path2304" class="st8" d="M556.9,104.8c-24.7,23.7-39,15-37.7-5c1.3-20.3,5-19.3,5-19.3s5.7,20.7,19,9
			c13-11.7-11-17.7-11-17.7s27-17.7,35.7-5C576.6,79.2,556.9,104.8,556.9,104.8L556.9,104.8z"/>
		<path id="path2306" class="st9" d="M556.9,104.8c-24.7,23.7-39,15-37.7-5c1.3-20.3,5-19.3,5-19.3s5.7,20.7,19,9
			c13-11.7-11-17.7-11-17.7s27-17.7,35.7-5C576.6,79.2,556.9,104.8,556.9,104.8L556.9,104.8z"/>
		<path id="path2308" class="st6" d="M455.6,360.8c0,55.3-45,100.3-100.3,100.3c-55.3,0-100-45-100-100.3c0-55.3,44.7-100,100-100
			C410.6,260.8,455.6,305.5,455.6,360.8z"/>
		<path id="path2310" class="st7" d="M455.6,360.8c0,55.3-45,100.3-100.3,100.3c-55.3,0-100-45-100-100.3c0-55.3,44.7-100,100-100
			C410.6,260.8,455.6,305.5,455.6,360.8z"/>
		<path id="path2312" class="st4" d="M435.9,358.8c0,44.3-36,80.7-80.7,80.7c-44.3,0-80.7-36.3-80.7-80.7
			c0-44.7,36.3-80.7,80.7-80.7C399.9,278.2,435.9,314.2,435.9,358.8z"/>
		<path id="path2314" class="st5" d="M435.9,358.8c0,44.3-36,80.7-80.7,80.7c-44.3,0-80.7-36.3-80.7-80.7
			c0-44.7,36.3-80.7,80.7-80.7C399.9,278.2,435.9,314.2,435.9,358.8z"/>
		<path id="path2316" class="st8" d="M335.2,298.5c-26.7,11-25,25.3-8.7,31c16,6,16.7,2.7,16.7,2.7s-14.3-11.3-0.7-17.7
			c13.7-6.3,10,14.3,10,14.3s23-15,16.3-26C361.9,291.8,335.2,298.5,335.2,298.5z"/>
		<path id="path2318" class="st9" d="M335.2,298.5c-26.7,11-25,25.3-8.7,31c16,6,16.7,2.7,16.7,2.7s-14.3-11.3-0.7-17.7
			c13.7-6.3,10,14.3,10,14.3s23-15,16.3-26C361.9,291.8,335.2,298.5,335.2,298.5z"/>
		<path id="path2320" class="st8" d="M375.2,419.2c28-11.7,26-26.3,9.3-32.3c-17-6.3-17.7-3-17.7-3s15,12,0.7,18.7
			c-14.3,6.7-10.7-15.3-10.7-15.3s-24,15.7-16.7,27.3C347.2,426.2,375.2,419.2,375.2,419.2L375.2,419.2z"/>
		<path id="path2322" class="st9" d="M375.2,419.2c28-11.7,26-26.3,9.3-32.3c-17-6.3-17.7-3-17.7-3s15,12,0.7,18.7
			c-14.3,6.7-10.7-15.3-10.7-15.3s-24,15.7-16.7,27.3C347.2,426.2,375.2,419.2,375.2,419.2L375.2,419.2z"/>
		<path id="path2324" class="st8" d="M292.9,377.2c13.3,32.3,30.3,30.3,37.3,10.7c7-19.3,3-20,3-20s-13.7,17-21.3,0.7
			c-7.7-16.3,17.3-12,17.3-12s-18-27.7-31-19.3C284.9,345.2,292.9,377.2,292.9,377.2L292.9,377.2z"/>
		<path id="path2326" class="st9" d="M292.9,377.2c13.3,32.3,30.3,30.3,37.3,10.7c7-19.3,3-20,3-20s-13.7,17-21.3,0.7
			c-7.7-16.3,17.3-12,17.3-12s-18-27.7-31-19.3C284.9,345.2,292.9,377.2,292.9,377.2L292.9,377.2z"/>
		<path id="path2328" class="st8" d="M412.2,340.2c-12-29-27.3-27.3-33.7-9.7c-6.3,17.7-3,18.3-3,18.3s12.7-15.7,19.3-0.7
			c7,14.7-15.7,10.7-15.7,10.7s16.3,25,28.3,17.7C419.6,369.2,412.2,340.2,412.2,340.2L412.2,340.2z"/>
		<path id="path2330" class="st9" d="M412.2,340.2c-12-29-27.3-27.3-33.7-9.7c-6.3,17.7-3,18.3-3,18.3s12.7-15.7,19.3-0.7
			c7,14.7-15.7,10.7-15.7,10.7s16.3,25,28.3,17.7C419.6,369.2,412.2,340.2,412.2,340.2L412.2,340.2z"/>
		<path id="path2332" class="st2" d="M517.6,513.5c13.3,0,76.7,3,66.7-35.3c-10.3-38.7,22-39,47.3-43.3c25.3-4.3,46.7-33.3,6.3-40.3
			c-40.3-6.7-12.7-35.7,15.7-42.7c28.3-7.3,79.3-57.7,33-65.7c-46-8-58-30.7-58-48.3c0-17.7-28.3-22-40,9
			c-11.7,30.7-8.7,58-38.3,37.3c-29.7-21-39.7-57-53.3-27.3c-13.7,29.7-10.3,28-12.7,48c-2.3,20.3-21.3,12.3-52.7,12.7
			c-31.3,0.3-36.7,11-25,28c11.3,17,20.3,20,20.3,31.7c0,12-0.3,35.3-32,37s-60-19-63,13.7c-2.7,32.3-8.3,42.7,12.7,54.3
			c21.3,12,17,3.7,67.7,13.7C462.6,506.2,517.6,513.5,517.6,513.5L517.6,513.5z"/>
		<path id="path2334" class="st0" d="M415.9,472.2c4-7.7,102.7-128,142.3-134.3c39.7-6.3-88.7,74.7-120.3,140
			C406.2,543.5,415.9,472.2,415.9,472.2z"/>
		<path id="path2336" class="st10" d="M716.2,442.8c0,129-88,239.7-213.7,287c-271.3,1.7-271.3,1.7-271.3,1.7
			C103.6,684.8,20.9,573.2,20.9,442.8H716.2z"/>
		<path id="path2338" class="st11" d="M716.2,442.8c0,129-88,239.7-213.7,287c-271.3,1.7-271.3,1.7-271.3,1.7
			C103.6,684.8,20.9,573.2,20.9,442.8H716.2z"/>
		<path id="path2340" class="st12" d="M589.2,499.8c-105.3,21.3-159.3,68.7-197.3,52c-38.3-16.3-26,18.7,33.7,25.7
			c59.3,7,148.7,12.3,194.7-34.7C665.9,495.8,589.2,499.8,589.2,499.8z"/>
	</g>
</g>
</svg>
